<svg xmlns="http://www.w3.org/2000/svg" width="1920" height="1080" preserveAspectRatio="none" style="opacity: .6;"><g mask="url(&quot;#a&quot;)" fill="none"><path fill="rgba(30, 31, 40, 1)" d="M0 0h1920v1080H0z"/><path d="m101.21 633.51 56.3 32.5v65l-56.3 32.5-56.29-32.5v-65zm56.3-97.5 56.29 32.5v65l-56.29 32.5-56.3-32.5v-65zm0 195 56.29 32.5v65l-56.29 32.5-56.3-32.5v-65zm112.58-390 56.3 32.5v65l-56.3 32.5-56.29-32.5v-65zm0 195 56.3 32.5v65l-56.3 32.5-56.29-32.5v-65zm168.88 97.5 56.3 32.5v65l-56.3 32.5-56.29-32.5v-65zm56.3-682.5 56.29 32.5v65l-56.29 32.5-56.3-32.5v-65zm56.29 97.5 56.29 32.5v65l-56.29 32.5-56.29-32.5v-65zm0 195 56.29 32.5v65l-56.29 32.5-56.29-32.5v-65zm-56.29 487.5 56.29 32.5v65l-56.29 32.5-56.3-32.5v-65zm0 195 56.29 32.5v65l-56.29 32.5-56.3-32.5v-65zm168.88-877.5 56.29 32.5v65l-56.29 32.5-56.3-32.5v-65zm0 780 56.29 32.5v65l-56.29 32.5-56.3-32.5v-65zm56.29-877.5 56.29 32.5v65l-56.29 32.5-56.29-32.5v-65zm168.88 292.5 56.29 32.5v65l-56.29 32.5-56.29-32.5v-65zm0 195 56.29 32.5v65l-56.29 32.5-56.29-32.5v-65zm-56.29 97.5 56.29 32.5v65l-56.29 32.5-56.3-32.5v-65zm281.46-292.5 56.3 32.5v65l-56.3 32.5-56.29-32.5v-65zm-56.29 292.5 56.29 32.5v65l-56.29 32.5-56.29-32.5v-65zm0 195 56.29 32.5v65l-56.29 32.5-56.29-32.5v-65zm168.88-97.5 56.29 32.5v65l-56.29 32.5-56.29-32.5v-65zm56.29-682.5 56.29 32.5v65l-56.29 32.5-56.29-32.5v-65zm56.29 97.5 56.3 32.5v65l-56.3 32.5-56.29-32.5v-65zm0 195 56.3 32.5v65l-56.3 32.5-56.29-32.5v-65zm0 390 56.3 32.5v65l-56.3 32.5-56.29-32.5v-65zm112.59-390 56.29 32.5v65l-56.29 32.5-56.29-32.5v-65zm112.59 195 56.29 32.5v65l-56.29 32.5-56.3-32.5v-65zm-56.3 97.5 56.3 32.5v65l-56.3 32.5-56.29-32.5v-65zm56.3 292.5 56.29 32.5v65l-56.29 32.5-56.3-32.5v-65zm112.58-780 56.3 32.5v65l-56.3 32.5-56.29-32.5v-65zm-56.29 487.5 56.29 32.5v65l-56.29 32.5-56.29-32.5v-65zm168.88-97.5 56.29 32.5v65l-56.29 32.5-56.29-32.5v-65zm-56.29 487.5 56.29 32.5v65l-56.29 32.5-56.3-32.5v-65zm56.29 97.5 56.29 32.5v65l-56.29 32.5-56.29-32.5v-65zm56.29-877.5 56.3 32.5v65l-56.3 32.5-56.29-32.5v-65zm56.3 97.5 56.29 32.5v65l-56.29 32.5-56.3-32.5v-65zm0 195 56.29 32.5v65l-56.29 32.5-56.3-32.5v-65zm112.58 390 56.3 32.5v65l-56.3 32.5-56.29-32.5v-65z" stroke="rgba(39, 39, 53, 1)" stroke-width="2"/><path d="M94.71 633.51a6.5 6.5 0 1 0 13 0 6.5 6.5 0 1 0-13 0zm56.3 32.5a6.5 6.5 0 1 0 13 0 6.5 6.5 0 1 0-13 0zm0 65a6.5 6.5 0 1 0 13 0 6.5 6.5 0 1 0-13 0zm-56.3 32.5a6.5 6.5 0 1 0 13 0 6.5 6.5 0 1 0-13 0zm-56.29-32.5a6.5 6.5 0 1 0 13 0 6.5 6.5 0 1 0-13 0zm0-65a6.5 6.5 0 1 0 13 0 6.5 6.5 0 1 0-13 0zm112.59-130a6.5 6.5 0 1 0 13 0 6.5 6.5 0 1 0-13 0zm56.29 32.5a6.5 6.5 0 1 0 13 0 6.5 6.5 0 1 0-13 0zm0 65a6.5 6.5 0 1 0 13 0 6.5 6.5 0 1 0-13 0zm-112.59-65a6.5 6.5 0 1 0 13 0 6.5 6.5 0 1 0-13 0zm112.59 195a6.5 6.5 0 1 0 13 0 6.5 6.5 0 1 0-13 0zm0 65a6.5 6.5 0 1 0 13 0 6.5 6.5 0 1 0-13 0zm-56.29 32.5a6.5 6.5 0 1 0 13 0 6.5 6.5 0 1 0-13 0zm-56.3-32.5a6.5 6.5 0 1 0 13 0 6.5 6.5 0 1 0-13 0zm168.88-487.5a6.5 6.5 0 1 0 13 0 6.5 6.5 0 1 0-13 0zm56.3 32.5a6.5 6.5 0 1 0 13 0 6.5 6.5 0 1 0-13 0zm0 65a6.5 6.5 0 1 0 13 0 6.5 6.5 0 1 0-13 0zm-56.3 32.5a6.5 6.5 0 1 0 13 0 6.5 6.5 0 1 0-13 0zm-56.29-32.5a6.5 6.5 0 1 0 13 0 6.5 6.5 0 1 0-13 0zm0-65a6.5 6.5 0 1 0 13 0 6.5 6.5 0 1 0-13 0zm56.29 162.5a6.5 6.5 0 1 0 13 0 6.5 6.5 0 1 0-13 0zm56.3 32.5a6.5 6.5 0 1 0 13 0 6.5 6.5 0 1 0-13 0zm0 65a6.5 6.5 0 1 0 13 0 6.5 6.5 0 1 0-13 0zm-56.3 32.5a6.5 6.5 0 1 0 13 0 6.5 6.5 0 1 0-13 0zm168.88-32.5a6.5 6.5 0 1 0 13 0 6.5 6.5 0 1 0-13 0zm56.3 32.5a6.5 6.5 0 1 0 13 0 6.5 6.5 0 1 0-13 0zm0 65a6.5 6.5 0 1 0 13 0 6.5 6.5 0 1 0-13 0zm-56.3 32.5a6.5 6.5 0 1 0 13 0 6.5 6.5 0 1 0-13 0zm-56.29-32.5a6.5 6.5 0 1 0 13 0 6.5 6.5 0 1 0-13 0zm0-65a6.5 6.5 0 1 0 13 0 6.5 6.5 0 1 0-13 0zm112.59-715a6.5 6.5 0 1 0 13 0 6.5 6.5 0 1 0-13 0zm56.29 32.5a6.5 6.5 0 1 0 13 0 6.5 6.5 0 1 0-13 0zm0 65a6.5 6.5 0 1 0 13 0 6.5 6.5 0 1 0-13 0zm-56.29 32.5a6.5 6.5 0 1 0 13 0 6.5 6.5 0 1 0-13 0zm-56.3-32.5a6.5 6.5 0 1 0 13 0 6.5 6.5 0 1 0-13 0zm0-65a6.5 6.5 0 1 0 13 0 6.5 6.5 0 1 0-13 0zm168.88 97.5a6.5 6.5 0 1 0 13 0 6.5 6.5 0 1 0-13 0zm0 65a6.5 6.5 0 1 0 13 0 6.5 6.5 0 1 0-13 0zm-56.29 32.5a6.5 6.5 0 1 0 13 0 6.5 6.5 0 1 0-13 0zm-56.29-32.5a6.5 6.5 0 1 0 13 0 6.5 6.5 0 1 0-13 0zm56.29 97.5a6.5 6.5 0 1 0 13 0 6.5 6.5 0 1 0-13 0zm56.29 32.5a6.5 6.5 0 1 0 13 0 6.5 6.5 0 1 0-13 0zm0 65a6.5 6.5 0 1 0 13 0 6.5 6.5 0 1 0-13 0zm-56.29 32.5a6.5 6.5 0 1 0 13 0 6.5 6.5 0 1 0-13 0zm-56.29-32.5a6.5 6.5 0 1 0 13 0 6.5 6.5 0 1 0-13 0zm0-65a6.5 6.5 0 1 0 13 0 6.5 6.5 0 1 0-13 0zm56.29 487.5a6.5 6.5 0 1 0 13 0 6.5 6.5 0 1 0-13 0zm0 65a6.5 6.5 0 1 0 13 0 6.5 6.5 0 1 0-13 0zm-56.29 32.5a6.5 6.5 0 1 0 13 0 6.5 6.5 0 1 0-13 0zm-56.3-32.5a6.5 6.5 0 1 0 13 0 6.5 6.5 0 1 0-13 0zm56.3 97.5a6.5 6.5 0 1 0 13 0 6.5 6.5 0 1 0-13 0zm56.29 32.5a6.5 6.5 0 1 0 13 0 6.5 6.5 0 1 0-13 0zm0 65a6.5 6.5 0 1 0 13 0 6.5 6.5 0 1 0-13 0zm-56.29 32.5a6.5 6.5 0 1 0 13 0 6.5 6.5 0 1 0-13 0zm-56.3-32.5a6.5 6.5 0 1 0 13 0 6.5 6.5 0 1 0-13 0zm0-65a6.5 6.5 0 1 0 13 0 6.5 6.5 0 1 0-13 0zm225.18-910a6.5 6.5 0 1 0 13 0 6.5 6.5 0 1 0-13 0zm56.29 32.5a6.5 6.5 0 1 0 13 0 6.5 6.5 0 1 0-13 0zm0 65a6.5 6.5 0 1 0 13 0 6.5 6.5 0 1 0-13 0zm-56.29 32.5a6.5 6.5 0 1 0 13 0 6.5 6.5 0 1 0-13 0zm0 650a6.5 6.5 0 1 0 13 0 6.5 6.5 0 1 0-13 0zm56.29 32.5a6.5 6.5 0 1 0 13 0 6.5 6.5 0 1 0-13 0zm0 65a6.5 6.5 0 1 0 13 0 6.5 6.5 0 1 0-13 0zm-56.29 32.5a6.5 6.5 0 1 0 13 0 6.5 6.5 0 1 0-13 0zm-56.3-32.5a6.5 6.5 0 1 0 13 0 6.5 6.5 0 1 0-13 0zm0-65a6.5 6.5 0 1 0 13 0 6.5 6.5 0 1 0-13 0zm112.59-910a6.5 6.5 0 1 0 13 0 6.5 6.5 0 1 0-13 0zm56.29 32.5a6.5 6.5 0 1 0 13 0 6.5 6.5 0 1 0-13 0zm0 65a6.5 6.5 0 1 0 13 0 6.5 6.5 0 1 0-13 0zm-112.58-65a6.5 6.5 0 1 0 13 0 6.5 6.5 0 1 0-13 0zm225.17 260a6.5 6.5 0 1 0 13 0 6.5 6.5 0 1 0-13 0zm56.29 32.5a6.5 6.5 0 1 0 13 0 6.5 6.5 0 1 0-13 0zm0 65a6.5 6.5 0 1 0 13 0 6.5 6.5 0 1 0-13 0zm-56.29 32.5a6.5 6.5 0 1 0 13 0 6.5 6.5 0 1 0-13 0zm-56.29-32.5a6.5 6.5 0 1 0 13 0 6.5 6.5 0 1 0-13 0zm0-65a6.5 6.5 0 1 0 13 0 6.5 6.5 0 1 0-13 0zm56.29 162.5a6.5 6.5 0 1 0 13 0 6.5 6.5 0 1 0-13 0zm56.29 32.5a6.5 6.5 0 1 0 13 0 6.5 6.5 0 1 0-13 0zm0 65a6.5 6.5 0 1 0 13 0 6.5 6.5 0 1 0-13 0zm-56.29 32.5a6.5 6.5 0 1 0 13 0 6.5 6.5 0 1 0-13 0zm-56.29-32.5a6.5 6.5 0 1 0 13 0 6.5 6.5 0 1 0-13 0zm0-65a6.5 6.5 0 1 0 13 0 6.5 6.5 0 1 0-13 0zm56.29 162.5a6.5 6.5 0 1 0 13 0 6.5 6.5 0 1 0-13 0zm-56.29 32.5a6.5 6.5 0 1 0 13 0 6.5 6.5 0 1 0-13 0zm-56.3-32.5a6.5 6.5 0 1 0 13 0 6.5 6.5 0 1 0-13 0zm0-65a6.5 6.5 0 1 0 13 0 6.5 6.5 0 1 0-13 0zm337.76-325a6.5 6.5 0 1 0 13 0 6.5 6.5 0 1 0-13 0zm56.3 32.5a6.5 6.5 0 1 0 13 0 6.5 6.5 0 1 0-13 0zm0 65a6.5 6.5 0 1 0 13 0 6.5 6.5 0 1 0-13 0zm-56.3 32.5a6.5 6.5 0 1 0 13 0 6.5 6.5 0 1 0-13 0zm-56.29-32.5a6.5 6.5 0 1 0 13 0 6.5 6.5 0 1 0-13 0zm0-65a6.5 6.5 0 1 0 13 0 6.5 6.5 0 1 0-13 0zm0 260a6.5 6.5 0 1 0 13 0 6.5 6.5 0 1 0-13 0zm56.29 32.5a6.5 6.5 0 1 0 13 0 6.5 6.5 0 1 0-13 0zm0 65a6.5 6.5 0 1 0 13 0 6.5 6.5 0 1 0-13 0zm-56.29 32.5a6.5 6.5 0 1 0 13 0 6.5 6.5 0 1 0-13 0zm-56.29-32.5a6.5 6.5 0 1 0 13 0 6.5 6.5 0 1 0-13 0zm0-65a6.5 6.5 0 1 0 13 0 6.5 6.5 0 1 0-13 0zm56.29 162.5a6.5 6.5 0 1 0 13 0 6.5 6.5 0 1 0-13 0zm56.29 32.5a6.5 6.5 0 1 0 13 0 6.5 6.5 0 1 0-13 0zm0 65a6.5 6.5 0 1 0 13 0 6.5 6.5 0 1 0-13 0zm-56.29 32.5a6.5 6.5 0 1 0 13 0 6.5 6.5 0 1 0-13 0zm-56.29-32.5a6.5 6.5 0 1 0 13 0 6.5 6.5 0 1 0-13 0zm0-65a6.5 6.5 0 1 0 13 0 6.5 6.5 0 1 0-13 0zm225.17-130a6.5 6.5 0 1 0 13 0 6.5 6.5 0 1 0-13 0zm56.29 32.5a6.5 6.5 0 1 0 13 0 6.5 6.5 0 1 0-13 0zm0 65a6.5 6.5 0 1 0 13 0 6.5 6.5 0 1 0-13 0zm-56.29 32.5a6.5 6.5 0 1 0 13 0 6.5 6.5 0 1 0-13 0zm-56.29-32.5a6.5 6.5 0 1 0 13 0 6.5 6.5 0 1 0-13 0zm0-65a6.5 6.5 0 1 0 13 0 6.5 6.5 0 1 0-13 0zm112.58-715a6.5 6.5 0 1 0 13 0 6.5 6.5 0 1 0-13 0zm56.29 32.5a6.5 6.5 0 1 0 13 0 6.5 6.5 0 1 0-13 0zm0 65a6.5 6.5 0 1 0 13 0 6.5 6.5 0 1 0-13 0zm-56.29 32.5a6.5 6.5 0 1 0 13 0 6.5 6.5 0 1 0-13 0zm-56.29-32.5a6.5 6.5 0 1 0 13 0 6.5 6.5 0 1 0-13 0zm0-65a6.5 6.5 0 1 0 13 0 6.5 6.5 0 1 0-13 0zm168.88 97.5a6.5 6.5 0 1 0 13 0 6.5 6.5 0 1 0-13 0zm0 65a6.5 6.5 0 1 0 13 0 6.5 6.5 0 1 0-13 0zm-56.3 32.5a6.5 6.5 0 1 0 13 0 6.5 6.5 0 1 0-13 0zm-56.29-32.5a6.5 6.5 0 1 0 13 0 6.5 6.5 0 1 0-13 0zm56.29 97.5a6.5 6.5 0 1 0 13 0 6.5 6.5 0 1 0-13 0zm56.3 32.5a6.5 6.5 0 1 0 13 0 6.5 6.5 0 1 0-13 0zm0 65a6.5 6.5 0 1 0 13 0 6.5 6.5 0 1 0-13 0zm-56.3 32.5a6.5 6.5 0 1 0 13 0 6.5 6.5 0 1 0-13 0zm-56.29-32.5a6.5 6.5 0 1 0 13 0 6.5 6.5 0 1 0-13 0zm0-65a6.5 6.5 0 1 0 13 0 6.5 6.5 0 1 0-13 0zm56.29 357.5a6.5 6.5 0 1 0 13 0 6.5 6.5 0 1 0-13 0zm56.3 32.5a6.5 6.5 0 1 0 13 0 6.5 6.5 0 1 0-13 0zm0 65a6.5 6.5 0 1 0 13 0 6.5 6.5 0 1 0-13 0zm-56.3 32.5a6.5 6.5 0 1 0 13 0 6.5 6.5 0 1 0-13 0zm112.59-520a6.5 6.5 0 1 0 13 0 6.5 6.5 0 1 0-13 0zm56.29 32.5a6.5 6.5 0 1 0 13 0 6.5 6.5 0 1 0-13 0zm0 65a6.5 6.5 0 1 0 13 0 6.5 6.5 0 1 0-13 0zm-56.29 32.5a6.5 6.5 0 1 0 13 0 6.5 6.5 0 1 0-13 0zm112.59 65a6.5 6.5 0 1 0 13 0 6.5 6.5 0 1 0-13 0zm56.29 32.5a6.5 6.5 0 1 0 13 0 6.5 6.5 0 1 0-13 0zm0 65a6.5 6.5 0 1 0 13 0 6.5 6.5 0 1 0-13 0zm-56.29 32.5a6.5 6.5 0 1 0 13 0 6.5 6.5 0 1 0-13 0zm-56.3-32.5a6.5 6.5 0 1 0 13 0 6.5 6.5 0 1 0-13 0zm0-65a6.5 6.5 0 1 0 13 0 6.5 6.5 0 1 0-13 0zm56.3 162.5a6.5 6.5 0 1 0 13 0 6.5 6.5 0 1 0-13 0zm-56.3 32.5a6.5 6.5 0 1 0 13 0 6.5 6.5 0 1 0-13 0zm-56.29-32.5a6.5 6.5 0 1 0 13 0 6.5 6.5 0 1 0-13 0zm0-65a6.5 6.5 0 1 0 13 0 6.5 6.5 0 1 0-13 0zm112.59 260a6.5 6.5 0 1 0 13 0 6.5 6.5 0 1 0-13 0zm56.29 32.5a6.5 6.5 0 1 0 13 0 6.5 6.5 0 1 0-13 0zm0 65a6.5 6.5 0 1 0 13 0 6.5 6.5 0 1 0-13 0zm-56.29 32.5a6.5 6.5 0 1 0 13 0 6.5 6.5 0 1 0-13 0zm-56.3-32.5a6.5 6.5 0 1 0 13 0 6.5 6.5 0 1 0-13 0zm0-65a6.5 6.5 0 1 0 13 0 6.5 6.5 0 1 0-13 0zm168.88-812.5a6.5 6.5 0 1 0 13 0 6.5 6.5 0 1 0-13 0zm56.3 32.5a6.5 6.5 0 1 0 13 0 6.5 6.5 0 1 0-13 0zm0 65a6.5 6.5 0 1 0 13 0 6.5 6.5 0 1 0-13 0zm-56.3 32.5a6.5 6.5 0 1 0 13 0 6.5 6.5 0 1 0-13 0zm-56.29-32.5a6.5 6.5 0 1 0 13 0 6.5 6.5 0 1 0-13 0zm0-65a6.5 6.5 0 1 0 13 0 6.5 6.5 0 1 0-13 0zm56.29 487.5a6.5 6.5 0 1 0 13 0 6.5 6.5 0 1 0-13 0zm0 65a6.5 6.5 0 1 0 13 0 6.5 6.5 0 1 0-13 0zm-56.29 32.5a6.5 6.5 0 1 0 13 0 6.5 6.5 0 1 0-13 0zm168.88-227.5a6.5 6.5 0 1 0 13 0 6.5 6.5 0 1 0-13 0zm56.29 32.5a6.5 6.5 0 1 0 13 0 6.5 6.5 0 1 0-13 0zm0 65a6.5 6.5 0 1 0 13 0 6.5 6.5 0 1 0-13 0zm-56.29 32.5a6.5 6.5 0 1 0 13 0 6.5 6.5 0 1 0-13 0zm-56.29-32.5a6.5 6.5 0 1 0 13 0 6.5 6.5 0 1 0-13 0zm0-65a6.5 6.5 0 1 0 13 0 6.5 6.5 0 1 0-13 0zm0 455a6.5 6.5 0 1 0 13 0 6.5 6.5 0 1 0-13 0zm56.29 32.5a6.5 6.5 0 1 0 13 0 6.5 6.5 0 1 0-13 0zm0 65a6.5 6.5 0 1 0 13 0 6.5 6.5 0 1 0-13 0zm-56.29 32.5a6.5 6.5 0 1 0 13 0 6.5 6.5 0 1 0-13 0zm-56.3-32.5a6.5 6.5 0 1 0 13 0 6.5 6.5 0 1 0-13 0zm0-65a6.5 6.5 0 1 0 13 0 6.5 6.5 0 1 0-13 0zm168.88 97.5a6.5 6.5 0 1 0 13 0 6.5 6.5 0 1 0-13 0zm0 65a6.5 6.5 0 1 0 13 0 6.5 6.5 0 1 0-13 0zm-56.29 32.5a6.5 6.5 0 1 0 13 0 6.5 6.5 0 1 0-13 0zm-56.29-32.5a6.5 6.5 0 1 0 13 0 6.5 6.5 0 1 0-13 0zm112.58-975a6.5 6.5 0 1 0 13 0 6.5 6.5 0 1 0-13 0zm56.3 32.5a6.5 6.5 0 1 0 13 0 6.5 6.5 0 1 0-13 0zm0 65a6.5 6.5 0 1 0 13 0 6.5 6.5 0 1 0-13 0zm-56.3 32.5a6.5 6.5 0 1 0 13 0 6.5 6.5 0 1 0-13 0zm-56.29-32.5a6.5 6.5 0 1 0 13 0 6.5 6.5 0 1 0-13 0zm0-65a6.5 6.5 0 1 0 13 0 6.5 6.5 0 1 0-13 0zm168.88 97.5a6.5 6.5 0 1 0 13 0 6.5 6.5 0 1 0-13 0zm0 65a6.5 6.5 0 1 0 13 0 6.5 6.5 0 1 0-13 0zm-56.29 32.5a6.5 6.5 0 1 0 13 0 6.5 6.5 0 1 0-13 0zm-56.3-32.5a6.5 6.5 0 1 0 13 0 6.5 6.5 0 1 0-13 0zm56.3 97.5a6.5 6.5 0 1 0 13 0 6.5 6.5 0 1 0-13 0zm56.29 32.5a6.5 6.5 0 1 0 13 0 6.5 6.5 0 1 0-13 0zm0 65a6.5 6.5 0 1 0 13 0 6.5 6.5 0 1 0-13 0zm-56.29 32.5a6.5 6.5 0 1 0 13 0 6.5 6.5 0 1 0-13 0zm112.58 260a6.5 6.5 0 1 0 13 0 6.5 6.5 0 1 0-13 0zm56.3 32.5a6.5 6.5 0 1 0 13 0 6.5 6.5 0 1 0-13 0zm0 65a6.5 6.5 0 1 0 13 0 6.5 6.5 0 1 0-13 0zm-56.3 32.5a6.5 6.5 0 1 0 13 0 6.5 6.5 0 1 0-13 0zm-56.29-32.5a6.5 6.5 0 1 0 13 0 6.5 6.5 0 1 0-13 0zm0-65a6.5 6.5 0 1 0 13 0 6.5 6.5 0 1 0-13 0z" fill="rgba(39, 39, 53, 1)"/><path d="m54.45 180.34 43.31 25v50l-43.31 25-43.3-25v-50zm-43.3 375 43.3 25v50l-43.3 25-43.3-25v-50zm43.3 75 43.31 25v50l-43.31 25-43.3-25v-50zm43.31-675 43.3 25v50l-43.3 25-43.31-25v-50zm43.3 75 43.3 25v50l-43.3 25-43.3-25v-50zm-43.3 525 43.3 25v50l-43.3 25-43.31-25v-50zm43.3 225 43.3 25v50l-43.3 25-43.3-25v-50zm-43.3 75 43.3 25v50l-43.3 25-43.31-25v-50zm86.6-900 43.3 25v50l-43.3 25-43.3-25v-50zm0 150 43.3 25v50l-43.3 25-43.3-25v-50zm0 150 43.3 25v50l-43.3 25-43.3-25v-50zm43.3 75 43.3 25v50l-43.3 25-43.3-25v-50zm0 150 43.3 25v50l-43.3 25-43.3-25v-50zm0 300 43.3 25v50l-43.3 25-43.3-25v-50zm43.3-825 43.31 25v50l-43.31 25-43.3-25v-50zm0 150 43.31 25v50l-43.31 25-43.3-25v-50zm43.31 75 43.3 25v50l-43.3 25-43.31-25v-50zm43.3-225 43.3 25v50l-43.3 25-43.3-25v-50zm0 300 43.3 25v50l-43.3 25-43.3-25v-50zm0 450 43.3 25v50l-43.3 25-43.3-25v-50zm43.3 75 43.31 25v50l-43.31 25-43.3-25v-50zm-43.3 75 43.3 25v50l-43.3 25-43.3-25v-50zm0 150 43.3 25v50l-43.3 25-43.3-25v-50zm129.91-975 43.3 25v50l-43.3 25-43.3-25v-50zm0 300 43.3 25v50l-43.3 25-43.3-25v-50zm-43.3 225 43.3 25v50l-43.3 25-43.31-25v-50zm43.3 225 43.3 25v50l-43.3 25-43.3-25v-50zm0 150 43.3 25v50l-43.3 25-43.3-25v-50zm43.3-975 43.3 25v50l-43.3 25-43.3-25v-50zm0 150 43.3 25v50l-43.3 25-43.3-25v-50zm43.3 225 43.3 25v50l-43.3 25-43.3-25v-50zm0 600 43.3 25v50l-43.3 25-43.3-25v-50zm86.61-750 43.3 25v50l-43.3 25-43.31-25v-50zm0 150 43.3 25v50l-43.3 25-43.31-25v-50zm-43.31 225 43.31 25v50l-43.31 25-43.3-25v-50zm86.61-450 43.3 25v50l-43.3 25-43.3-25v-50zm0 600 43.3 25v50l-43.3 25-43.3-25v-50zm43.3 225 43.31 25v50l-43.31 25-43.3-25v-50zm43.31-975 43.3 25v50l-43.3 25-43.31-25v-50zm86.6 0 43.3 25v50l-43.3 25-43.3-25v-50zm43.3 75 43.31 25v50l-43.31 25-43.3-25v-50zm0 600 43.31 25v50l-43.31 25-43.3-25v-50zm0 150 43.31 25v50l-43.31 25-43.3-25v-50zm0 150 43.31 25v50l-43.31 25-43.3-25v-50zm43.31-675 43.3 25v50l-43.3 25-43.31-25v-50zm43.3 75 43.3 25v50l-43.3 25-43.3-25v-50zm0 150 43.3 25v50l-43.3 25-43.3-25v-50zm0 150 43.3 25v50l-43.3 25-43.3-25v-50zm43.3-675 43.3 25v50l-43.3 25-43.3-25v-50zm0 300 43.3 25v50l-43.3 25-43.3-25v-50zm43.3 75 43.31 25v50l-43.31 25-43.3-25v-50zm-43.3 75 43.3 25v50l-43.3 25-43.3-25v-50zm43.3 375 43.31 25v50l-43.31 25-43.3-25v-50zm0 150 43.31 25v50l-43.31 25-43.3-25v-50zm86.61-900 43.3 25v50l-43.3 25-43.3-25v-50zm0 300 43.3 25v50l-43.3 25-43.3-25v-50zm-43.3 75 43.3 25v50l-43.3 25-43.31-25v-50zm43.3 75 43.3 25v50l-43.3 25-43.3-25v-50zm-43.3 75 43.3 25v50l-43.3 25-43.31-25v-50zm0 150 43.3 25v50l-43.3 25-43.31-25v-50zm86.6-750 43.3 25v50l-43.3 25-43.3-25v-50zm0 150 43.3 25v50l-43.3 25-43.3-25v-50zm0 300 43.3 25v50l-43.3 25-43.3-25v-50zm43.3 525 43.31 25v50l-43.31 25-43.3-25v-50zm43.31-675 43.3 25v50l-43.3 25-43.31-25v-50zm43.3 75 43.3 25v50l-43.3 25-43.3-25v-50zm0 300 43.3 25v50l-43.3 25-43.3-25v-50zm-43.3 75 43.3 25v50l-43.3 25-43.31-25v-50zm43.3 225 43.3 25v50l-43.3 25-43.3-25v-50zm-43.3 75 43.3 25v50l-43.3 25-43.31-25v-50zm129.9-975 43.31 25v50l-43.31 25-43.3-25v-50zm-43.3 75 43.3 25v50l-43.3 25-43.3-25v-50zm43.3 225 43.31 25v50l-43.31 25-43.3-25v-50zm0 450 43.31 25v50l-43.31 25-43.3-25v-50zm-43.3 75 43.3 25v50l-43.3 25-43.3-25v-50zm86.61-600 43.3 25v50l-43.3 25-43.31-25v-50zm0 450 43.3 25v50l-43.3 25-43.31-25v-50zm0 150 43.3 25v50l-43.3 25-43.31-25v-50zm0 150 43.3 25v50l-43.3 25-43.31-25v-50zm86.6-1050 43.3 25v50l-43.3 25-43.3-25v-50zm43.3 75 43.31 25v50l-43.31 25-43.3-25v-50zm-43.3 375 43.3 25v50l-43.3 25-43.3-25v-50zm43.3 225 43.31 25v50l-43.31 25-43.3-25v-50zm0 150 43.31 25v50l-43.31 25-43.3-25v-50zm43.31-825 43.3 25v50l-43.3 25-43.31-25v-50zm0 300 43.3 25v50l-43.3 25-43.31-25v-50zm0 150 43.3 25v50l-43.3 25-43.31-25v-50zm43.3 75 43.3 25v50l-43.3 25-43.3-25v-50zm0 150 43.3 25v50l-43.3 25-43.3-25v-50zm-43.3 225 43.3 25v50l-43.3 25-43.31-25v-50zm0 150 43.3 25v50l-43.3 25-43.31-25v-50zm129.9-675 43.31 25v50l-43.31 25-43.3-25v-50zm-43.3 75 43.3 25v50l-43.3 25-43.3-25v-50zm43.3 75 43.31 25v50l-43.31 25-43.3-25v-50zm-43.3 225 43.3 25v50l-43.3 25-43.3-25v-50zm43.3 75 43.31 25v50l-43.31 25-43.3-25v-50zm-43.3 225 43.3 25v50l-43.3 25-43.3-25v-50zm129.91-675 43.3 25v50l-43.3 25-43.3-25v-50zm43.3-375 43.3 25v50l-43.3 25-43.3-25v-50zm0 150 43.3 25v50l-43.3 25-43.3-25v-50zm0 450 43.3 25v50l-43.3 25-43.3-25v-50zm43.3 375 43.31 25v50l-43.31 25-43.3-25v-50zm-43.3 75 43.3 25v50l-43.3 25-43.3-25v-50z" stroke="rgba(40, 42, 54, 1)" stroke-width="2"/></g><defs><mask id="a"><path fill="#fff" d="M0 0h1920v1080H0z"/></mask></defs></svg>