<svg width="1371.539" height="441.004" viewBox="0 0 362.886 116.682" class="resize-x" xmlns="http://www.w3.org/2000/svg">

<path fill="#23242e" stroke="#2b2d38" stroke-dashoffset="9.562" stroke-width="0.5" d="M.767.767h361.352v115.148H.767Z" paint-order="stroke markers fill"/>

<g class="group-button kbd-sc145"><path fill="#333" class="kbd-box" stroke="#000" stroke-dashoffset="9.562" stroke-width="1.147" d="M-401.76 1.71h13.47c.926 0 1.671.744 1.671 1.67v9.549c0 .926-.745 1.671-1.67 1.671h-13.471a1.667 1.667 0 0 1-1.671-1.671V3.38c0-.926.745-1.67 1.67-1.67z" paint-order="stroke markers fill" transform="matrix(1.0018 0 0 1.28165 689.935 16.676)"/><path fill="#999" d="M292.412 27.077h-.35l-1.329-2.025v2.025h-.35v-2.628h.35l1.333 2.034v-2.034h.346zm1.776-.193q-.196.229-.575.229-.313 0-.478-.18-.163-.183-.165-.538v-1.271h.335v1.262q0 .444.363.444.384 0 .51-.286v-1.42h.336v1.953h-.319zm1.15-1.76.01.216q.215-.252.582-.252.411 0 .56.314.097-.14.253-.228.158-.086.372-.086.645 0 .656.68v1.309h-.335v-1.289q0-.21-.096-.312-.097-.105-.323-.105-.187 0-.31.112-.123.11-.143.298v1.296h-.337v-1.28q0-.426-.419-.426-.33 0-.451.28v1.426h-.336v-1.953zm-4.605 4.732h1.251v.283h-1.6v-2.628h.35zm1.507-.711q0-.287.112-.517.114-.229.315-.353.203-.125.462-.125.401 0 .647.276.249.276.249.735v.023q0 .286-.11.513-.11.226-.314.352-.203.126-.468.126-.399 0-.647-.276-.246-.276-.246-.73zm.337.04q0 .324.15.521.152.197.406.197.256 0 .406-.199.15-.2.15-.56 0-.32-.154-.52-.152-.2-.406-.2-.248 0-.4.197-.152.197-.152.563zm2.655.718q.18 0 .313-.109.134-.108.149-.27h.317q-.009.168-.116.32-.107.15-.286.241-.178.09-.377.09-.4 0-.638-.265-.236-.267-.236-.73v-.055q0-.285.105-.507.105-.222.301-.345.198-.123.466-.123.33 0 .547.197.22.197.234.51h-.317q-.015-.189-.145-.31-.129-.122-.319-.122-.256 0-.397.184-.14.182-.14.528v.064q0 .337.14.52.14.182.399.182zm1.704-.668-.21.218v.686h-.336v-2.772h.335v1.677l.18-.215.61-.643h.408l-.763.816.852 1.137h-.393z"/></g><g class="group-button kbd-sc135"><path fill="#333" class="kbd-box" stroke="#000" stroke-dashoffset="9.562" stroke-width="1.147" d="M-401.76 1.71h13.47c.926 0 1.671.744 1.671 1.67v9.549c0 .926-.745 1.671-1.67 1.671h-13.471a1.667 1.667 0 0 1-1.671-1.671V3.38c0-.926.745-1.67 1.67-1.67z" paint-order="stroke markers fill" transform="matrix(1.0018 0 0 1.28165 708.456 16.676)"/><path fill="#999" d="M312.046 29.62h-.477l1.825-4.986h.475z" aria-label="/" font-size="6.302"/></g><g class="group-button kbd-sc37"><path fill="#333" class="kbd-box" stroke="#000" stroke-dashoffset="9.562" stroke-width="1.147" d="M-401.76 1.71h13.47c.926 0 1.671.744 1.671 1.67v9.549c0 .926-.745 1.671-1.67 1.671h-13.471a1.667 1.667 0 0 1-1.671-1.671V3.38c0-.926.745-1.67 1.67-1.67z" paint-order="stroke markers fill" transform="matrix(1.0018 0 0 1.28165 726.977 16.676)"/><path fill="#999" d="M330.908 27.283 330 27l.138-.477.907.354-.027-1.085h.46l-.03 1.1.89-.347.139.48-.922.287.595.854-.372.297-.559-.908-.54.886-.375-.287z" aria-label="*" font-size="6.302"/></g><g class="group-button kbd-sc4A"><path fill="#333" class="kbd-box" stroke="#000" stroke-dashoffset="9.562" stroke-width="1.147" d="M-401.76 1.71h13.47c.926 0 1.671.744 1.671 1.67v9.549c0 .926-.745 1.671-1.67 1.671h-13.471a1.667 1.667 0 0 1-1.671-1.671V3.38c0-.926.745-1.67 1.67-1.67z" paint-order="stroke markers fill" transform="matrix(1.0018 0 0 1.28165 745.498 16.676)"/><path fill="#999" d="M351.307 27.63h-3.093v-1.005h3.093z" aria-label="-" font-size="13.304"/></g><g class="group-button kbd-sc47"><path fill="#333" class="kbd-box" stroke="#000" stroke-dashoffset="9.562" stroke-width="1.147" d="M-401.76 1.71h13.47c.926 0 1.671.744 1.671 1.67v9.549c0 .926-.745 1.671-1.67 1.671h-13.471a1.667 1.667 0 0 1-1.671-1.671V3.38c0-.926.745-1.67 1.67-1.67z" paint-order="stroke markers fill" transform="matrix(1.0018 0 0 1.28165 689.935 35.679)"/><path fill="#999" d="m295.675 44.162-1.81 4.264h-.583l1.804-4.112h-2.365v-.48h2.954z" aria-label="7" font-size="6.302"/></g><g class="group-button kbd-sc48"><path fill="#333" class="kbd-box" stroke="#000" stroke-dashoffset="9.562" stroke-width="1.147" d="M-401.76 1.71h13.47c.926 0 1.671.744 1.671 1.67v9.549c0 .926-.745 1.671-1.67 1.671h-13.471a1.667 1.667 0 0 1-1.671-1.671V3.38c0-.926.745-1.67 1.67-1.67z" paint-order="stroke markers fill" transform="matrix(1.0018 0 0 1.28165 708.456 35.679)"/><path fill="#999" d="M314.008 45.033q0 .344-.174.612-.171.268-.465.42.342.154.54.45.201.297.201.672 0 .596-.384.95-.381.352-1.006.352-.63 0-1.011-.353-.379-.356-.379-.95 0-.371.192-.67.196-.3.538-.455-.291-.151-.46-.42-.168-.268-.168-.608 0-.58.355-.921.354-.34.933-.34.577 0 .93.34.358.34.358.92zm-.453 2.141q0-.385-.234-.627-.232-.243-.607-.243t-.603.24q-.225.24-.225.63 0 .391.219.615.222.224.615.224.39 0 .613-.224.222-.227.222-.615zm-.835-2.923q-.327 0-.531.214-.201.211-.201.577 0 .35.198.568.201.214.534.214t.532-.214q.2-.218.2-.568t-.206-.57q-.208-.221-.526-.221z" aria-label="8" font-size="6.302"/></g><g class="group-button kbd-sc49"><path fill="#333" class="kbd-box" stroke="#000" stroke-dashoffset="9.562" stroke-width="1.3" d="M324.494 37.87h13.494c.928 0 1.675.955 1.675 2.141V52.25c0 1.187-.747 2.142-1.675 2.142h-13.494c-.927 0-1.674-.955-1.674-2.142V40.011c0-1.186.747-2.142 1.674-2.142z" paint-order="stroke markers fill"/><path fill="#999" d="M333.285 46.515q-.174.217-.417.35-.24.132-.528.132-.379 0-.66-.195-.28-.196-.433-.55-.153-.356-.153-.784 0-.461.165-.83.168-.369.474-.565.306-.195.715-.195.648 0 1.02.51.376.509.376 1.389v.17q0 1.34-.505 1.958-.504.615-1.522.631h-.108v-.492h.117q.688-.012 1.057-.375.37-.366.402-1.154zm-.855 0q.279 0 .513-.18.237-.18.345-.445v-.233q0-.574-.237-.934-.237-.36-.6-.36-.367 0-.589.297-.222.293-.222.776 0 .47.213.776.216.303.577.303z" aria-label="9" font-size="6.302"/></g><g class="group-button kbd-sc4B"><path fill="#333" class="kbd-box" stroke="#000" stroke-dashoffset="9.562" stroke-width="1.147" d="M-401.76 1.71h13.47c.926 0 1.671.744 1.671 1.67v9.549c0 .926-.745 1.671-1.67 1.671h-13.471a1.667 1.667 0 0 1-1.671-1.671V3.38c0-.926.745-1.67 1.67-1.67z" paint-order="stroke markers fill" transform="matrix(1.0018 0 0 1.28165 689.935 54.77)"/><path fill="#999" d="M294.756 65.222h.607v.476h-.607v1.066h-.558v-1.066h-1.99v-.343l1.957-3.183h.591zm-1.918 0h1.36V62.97l-.066.126z" aria-label="4" font-size="6.302"/></g><g class="group-button kbd-sc4C"><path fill="#333" class="kbd-box" stroke="#000" stroke-dashoffset="9.562" stroke-width="1.147" d="M-401.76 1.71h13.47c.926 0 1.671.744 1.671 1.67v9.549c0 .926-.745 1.671-1.67 1.671h-13.471a1.667 1.667 0 0 1-1.671-1.671V3.38c0-.926.745-1.67 1.67-1.67z" paint-order="stroke markers fill" transform="matrix(1.0018 0 0 1.28165 708.456 54.769)"/><path fill="#999" d="m311.613 65.214.222-2.29h2.24v.54h-1.769l-.132 1.252q.321-.199.73-.199.597 0 .948.416.351.413.351 1.12 0 .71-.366 1.12-.363.406-1.018.406-.58 0-.945-.337-.367-.338-.418-.934h.526q.05.395.267.596.216.2.57.2.388 0 .607-.278.222-.278.222-.767 0-.46-.24-.738-.237-.28-.634-.28-.363 0-.57.167l-.147.126z" aria-label="5" font-size="6.302"/></g><g class="group-button kbd-sc4D"><path fill="#333" class="kbd-box" stroke="#000" stroke-dashoffset="9.562" stroke-width="1.147" d="M-401.76 1.71h13.47c.926 0 1.671.744 1.671 1.67v9.549c0 .926-.745 1.671-1.67 1.671h-13.471a1.667 1.667 0 0 1-1.671-1.671V3.38c0-.926.745-1.67 1.67-1.67z" paint-order="stroke markers fill" transform="matrix(1.0018 0 0 1.28165 726.977 54.769)"/><path fill="#999" d="M331.087 63.385v.495h-.102q-.648.013-1.032.404-.385.39-.445 1.1.346-.416.943-.416.57 0 .91.423.342.422.342 1.09 0 .71-.37 1.136-.366.426-.984.426-.628 0-1.018-.505-.39-.507-.39-1.305v-.224q0-1.268.513-1.937.517-.671 1.534-.687zm-.73 2.069q-.284 0-.524.18-.24.18-.334.45v.215q0 .568.243.915.244.346.607.346.375 0 .588-.29.216-.29.216-.76 0-.473-.219-.763-.216-.293-.576-.293z" aria-label="6" font-size="6.302"/></g><g class="group-button kbd-sc4E"><path fill="#333" class="kbd-box" stroke="#000" stroke-dashoffset="9.562" stroke-width="1.3" d="M343.48 37.87a2.137 2.137 0 0 0-2.14 2.141V71.34c0 1.187.954 2.142 2.14 2.142h12.56a2.137 2.137 0 0 0 2.142-2.142V40.011a2.137 2.137 0 0 0-2.142-2.141z" paint-order="stroke markers fill"/><path fill="#999" d="M350.129 55.239h1.606v.727h-1.606v1.912h-.736v-1.912h-1.607v-.727h1.607v-1.767h.736z" aria-label="+" font-size="8.305"/></g><g class="group-button kbd-sc4F"><path fill="#333" class="kbd-box" stroke="#000" stroke-dashoffset="9.562" stroke-width="1.147" d="M-401.76 1.71h13.47c.926 0 1.671.744 1.671 1.67v9.549c0 .926-.745 1.671-1.67 1.671h-13.471a1.667 1.667 0 0 1-1.671-1.671V3.38c0-.926.745-1.67 1.67-1.67z" paint-order="stroke markers fill" transform="matrix(1.0018 0 0 1.28165 689.935 73.819)"/><path fill="#999" d="M294.756 86.215h-.558v-3.89l-1.12.433v-.53l1.591-.627h.087z" aria-label="1" font-size="6.302"/></g><g class="group-button kbd-sc50"><path fill="#333" class="kbd-box" stroke="#000" stroke-dashoffset="9.562" stroke-width="1.147" d="M-401.76 1.71h13.47c.926 0 1.671.744 1.671 1.67v9.549c0 .926-.745 1.671-1.67 1.671h-13.471a1.667 1.667 0 0 1-1.671-1.671V3.38c0-.926.745-1.67 1.67-1.67z" paint-order="stroke markers fill" transform="matrix(1.0018 0 0 1.28165 708.456 73.819)"/><path fill="#999" d="M314.07 86.456h-2.864v-.42l1.513-1.766q.336-.4.462-.65.13-.252.13-.52 0-.36-.208-.59-.207-.23-.552-.23-.415 0-.646.25-.228.245-.228.687h-.555q0-.634.387-1.025.39-.391 1.042-.391.609 0 .963.337.354.335.354.893 0 .678-.822 1.615l-1.17 1.334h2.194z" aria-label="2" font-size="6.302"/></g><g class="group-button kbd-sc51"><path fill="#333" class="kbd-box" stroke="#000" stroke-dashoffset="9.562" stroke-width="1.147" d="M-401.76 1.71h13.47c.926 0 1.671.744 1.671 1.67v9.549c0 .926-.745 1.671-1.67 1.671h-13.471a1.667 1.667 0 0 1-1.671-1.671V3.38c0-.926.745-1.67 1.67-1.67z" paint-order="stroke markers fill" transform="matrix(1.0018 0 0 1.28165 726.977 73.819)"/><path fill="#999" d="M330.11 84.046h.418q.393-.006.619-.217.225-.212.225-.571 0-.808-.766-.808-.36 0-.576.218-.213.215-.213.571h-.556q0-.546.379-.905.38-.363.966-.363.619 0 .97.344t.351.956q0 .3-.186.58-.183.28-.501.42.36.12.555.397.198.277.198.678 0 .618-.384.98-.384.363-1 .363-.615 0-1.002-.35-.385-.35-.385-.924h.559q0 .363.225.58.225.218.603.218.402 0 .616-.22.213-.221.213-.635 0-.4-.234-.615-.235-.214-.676-.22h-.417z" aria-label="3" font-size="6.302"/></g><g class="group-button kbd-sc52"><path fill="#333" class="kbd-box" stroke="#000" stroke-dashoffset="9.562" stroke-width="1.147" d="M-401.76 1.71h13.47c.926 0 1.671.744 1.671 1.67v9.549c0 .926-.745 1.671-1.67 1.671h-13.471a1.667 1.667 0 0 1-1.671-1.671V3.38c0-.926.745-1.67 1.67-1.67z" paint-order="stroke markers fill" transform="matrix(1.0018 0 0 1.28165 708.456 92.869)"/><path fill="#999" d="M314.098 103.658q0 1.025-.333 1.523t-1.042.498q-.7 0-1.035-.485-.337-.49-.349-1.457v-.78q0-1.012.334-1.504.333-.492 1.044-.492.706 0 1.039.476.333.473.342 1.464zm-.555-.798q0-.741-.198-1.079-.198-.34-.628-.34-.426 0-.621.337t-.201 1.038v.933q0 .744.204 1.1.207.354.624.354.412 0 .61-.334.2-.335.21-1.054z" aria-label="0" font-size="6.302"/></g><g class="group-button kbd-sc53"><path fill="#333" class="kbd-box" stroke="#000" stroke-dashoffset="9.562" stroke-width="1.147" d="M-401.76 1.71h13.47c.926 0 1.671.744 1.671 1.67v9.549c0 .926-.745 1.671-1.67 1.671h-13.471a1.667 1.667 0 0 1-1.671-1.671V3.38c0-.926.745-1.67 1.67-1.67z" paint-order="stroke markers fill" transform="matrix(1.0018 0 0 1.28165 726.977 92.869)"/><path fill="#999" d="M326.244 100.309q0-.165.096-.275.1-.11.297-.11.197 0 .297.11.104.11.104.275 0 .158-.104.264-.1.107-.297.107-.197 0-.297-.107-.096-.106-.096-.264z"/><path fill="#999" d="M331.347 106.676v-3.004h.852q.393 0 .696.173.302.174.466.493.165.32.167.735v.192q0 .425-.165.744-.164.32-.47.491-.305.171-.71.176zm.398-2.678v2.354h.418q.46 0 .715-.285.257-.285.257-.81v-.176q0-.511-.242-.794-.24-.285-.684-.289zm3.254 2.719q-.456 0-.741-.297-.286-.3-.286-.798v-.07q0-.333.126-.593.128-.262.356-.408.23-.149.497-.149.438 0 .68.287.242.287.242.821v.159h-1.518q.008.33.193.534.186.202.472.202.203 0 .344-.082.14-.083.246-.219l.234.182q-.281.43-.845.43zm-.047-2.001q-.232 0-.39.17-.157.166-.195.47h1.123v-.03q-.017-.29-.157-.45-.141-.16-.381-.16zm1.78 1.96h-.382v-3.169h.383z" font-size="4.233"/></g><g class="group-button kbd-sc11C"><path fill="#333" class="kbd-box" stroke="#000" stroke-dashoffset="9.562" stroke-width="1.3" d="M343.48 76.01a2.137 2.137 0 0 0-2.14 2.141v31.288c0 1.187.954 2.142 2.14 2.142h12.56a2.137 2.137 0 0 0 2.142-2.142V78.151a2.137 2.137 0 0 0-2.142-2.142z" paint-order="stroke markers fill"/><path fill="#999" d="M346.761 93.888h-1.307v1.064h1.519v.324h-1.916v-3.003h1.895v.326h-1.498v.965h1.307zm1.01-.844.011.28q.257-.321.672-.321.71 0 .716.798v1.475h-.383V93.8q-.002-.241-.112-.357-.108-.115-.337-.115-.187 0-.328.099-.14.099-.22.26v1.59h-.382v-2.232zm2.497-.54v.54h.419v.295h-.419v1.384q0 .134.056.203.056.066.19.066.067 0 .183-.025v.31q-.151.04-.294.04-.257 0-.388-.154-.13-.155-.13-.44V93.34h-.408v-.295h.408v-.54zm1.796 2.813q-.456 0-.742-.297-.285-.299-.285-.798v-.07q0-.332.126-.592.128-.262.356-.408.23-.149.497-.149.437 0 .68.287.242.286.242.82v.16h-1.518q.008.33.192.534.187.202.473.202.203 0 .344-.083.14-.082.246-.218l.234.181q-.282.431-.845.431zm-.048-2q-.232 0-.389.169-.157.167-.195.47h1.123v-.029q-.017-.29-.158-.45-.14-.16-.38-.16zm2.449.07q-.087-.015-.189-.015-.377 0-.511.32v1.584h-.384v-2.232h.373l.006.258q.189-.299.535-.299.111 0 .17.029z"/></g><g><g class="group-button kbd-sc148"><path fill="#333" class="kbd-box" stroke="#000" stroke-dashoffset="9.562" stroke-width="1.147" d="M-401.76 1.71h13.47c.926 0 1.671.744 1.671 1.67v9.549c0 .926-.745 1.671-1.67 1.671h-13.471a1.667 1.667 0 0 1-1.671-1.671V3.38c0-.926.745-1.67 1.67-1.67z" paint-order="stroke markers fill" transform="matrix(1.0018 0 0 1.28165 668.165 73.819)"/><path fill="#999" d="m272.427 80.446 1.53 2.651h-1.147v4.997h-.765v-4.997h-1.148z" aria-label="游맷" font-size="10.583"/></g><g class="group-button kbd-sc14B"><path fill="#333" class="kbd-box" stroke="#000" stroke-dashoffset="9.562" stroke-width="1.147" d="M-401.76 1.71h13.47c.926 0 1.671.744 1.671 1.67v9.549c0 .926-.745 1.671-1.67 1.671h-13.471a1.667 1.667 0 0 1-1.671-1.671V3.38c0-.926.745-1.67 1.67-1.67z" paint-order="stroke markers fill" transform="matrix(1.0018 0 0 1.28165 649.644 92.869)"/><path fill="#999" d="m250.082 103.32 2.651-1.53v1.148h4.997v.765h-4.997v1.147z" aria-label="游맷" font-size="10.583"/></g><g class="group-button kbd-sc150"><path fill="#333" class="kbd-box" stroke="#000" stroke-dashoffset="9.562" stroke-width="1.147" d="M-401.76 1.71h13.47c.926 0 1.671.744 1.671 1.67v9.549c0 .926-.745 1.671-1.67 1.671h-13.471a1.667 1.667 0 0 1-1.671-1.671V3.38c0-.926.745-1.67 1.67-1.67z" paint-order="stroke markers fill" transform="matrix(1.0018 0 0 1.28165 668.165 92.869)"/><path fill="#999" d="m272.427 107.144 1.53-2.65h-1.147v-4.998h-.765v4.997h-1.148z" aria-label="游맷" font-size="10.583"/></g><g class="group-button kbd-sc14D"><path fill="#333" class="kbd-box" stroke="#000" stroke-dashoffset="9.562" stroke-width="1.147" d="M-401.76 1.71h13.47c.926 0 1.671.744 1.671 1.67v9.549c0 .926-.745 1.671-1.67 1.671h-13.471a1.667 1.667 0 0 1-1.671-1.671V3.38c0-.926.745-1.67 1.67-1.67z" paint-order="stroke markers fill" transform="matrix(1.0018 0 0 1.28165 686.686 92.869)"/><path fill="#999" d="m294.772 103.32-2.65 1.53v-1.147h-4.998v-.765h4.997v-1.147z" aria-label="游맷" font-size="10.583"/></g></g><g><g class="group-button kbd-sc1D"><path fill="#333" class="kbd-box" stroke="#000" stroke-dashoffset="9.562" stroke-width="1.147" d="M-401.76 1.71h13.47c.926 0 1.671.744 1.671 1.67v9.549c0 .926-.745 1.671-1.67 1.671h-13.471a1.667 1.667 0 0 1-1.671-1.671V3.38c0-.926.745-1.67 1.67-1.67z" paint-order="stroke markers fill" transform="matrix(1.0018 0 0 1.28165 408.873 92.869)"/><path fill="#999" d="M12.263 104.085q-.07.597-.441.922-.37.323-.985.323-.666 0-1.07-.478-.4-.478-.4-1.279v-.361q0-.525.186-.923.189-.398.532-.61.344-.214.796-.214.6 0 .961.336.362.333.421.925h-.498q-.065-.45-.282-.651-.214-.202-.602-.202-.475 0-.747.352-.268.351-.268 1v.364q0 .612.255.974.256.362.716.362.414 0 .633-.186.222-.189.295-.654zm1.251-2.279v.677h.522v.37h-.522v1.733q0 .168.07.254.07.082.237.082.083 0 .228-.03v.387q-.189.052-.367.052-.32 0-.483-.194-.163-.194-.163-.55v-1.734h-.51v-.37h.51v-.677zm2.431 1.106q-.108-.018-.235-.018-.47 0-.638.4v1.985h-.478v-2.796h.465l.008.323q.235-.375.667-.375.14 0 .211.037zm.959 2.367h-.478v-3.969h.478z"/></g><g class="group-button kbd-sc15B"><path fill="#333" class="kbd-box" stroke="#000" stroke-dashoffset="9.562" stroke-width="1.147" d="M-401.76 1.71h13.47c.926 0 1.671.744 1.671 1.67v9.549c0 .926-.745 1.671-1.67 1.671h-13.471a1.667 1.667 0 0 1-1.671-1.671V3.38c0-.926.745-1.67 1.67-1.67z" paint-order="stroke markers fill" transform="matrix(1.0018 0 0 1.28165 427.394 92.869)"/><path fill="#999" d="m28.556 104.041.072.496.106-.447.744-2.625h.419l.726 2.625.103.455.08-.506.584-2.574h.499l-.912 3.762h-.453l-.775-2.741-.06-.287-.059.287-.803 2.741h-.452l-.91-3.762h.496zm4.327 1.186h-.478v-2.796h.478zm-.516-3.537q0-.116.07-.197.072-.08.211-.08.14 0 .212.08.073.08.073.197 0 .116-.073.194-.072.077-.212.077t-.212-.077q-.07-.078-.07-.194zm1.733.741.016.352q.32-.403.837-.403.886 0 .894 1v1.847h-.478v-1.85q-.003-.302-.14-.447-.134-.145-.42-.145-.233 0-.409.124-.176.124-.274.326v1.992h-.478v-2.796z"/></g><g class="group-button kbd-sc38"><path fill="#333" class="kbd-box" stroke="#000" stroke-dashoffset="9.562" stroke-width="1.147" d="M-401.76 1.71h13.47c.926 0 1.671.744 1.671 1.67v9.549c0 .926-.745 1.671-1.67 1.671h-13.471a1.667 1.667 0 0 1-1.671-1.671V3.38c0-.926.745-1.67 1.67-1.67z" paint-order="stroke markers fill" transform="matrix(1.0018 0 0 1.28165 445.915 92.869)"/><path fill="#999" d="M49.514 104.297h-1.576l-.354.982h-.511l1.436-3.762h.434l1.44 3.762h-.51zm-1.426-.408h1.279l-.64-1.76zm3.245 1.39h-.478v-3.969h.478zm1.414-3.473v.677h.522v.37h-.522v1.733q0 .168.07.254.07.082.237.082.083 0 .227-.03v.387q-.188.052-.366.052-.32 0-.484-.194-.162-.194-.162-.55v-1.734h-.51v-.37h.51v-.677z"/></g><g class="group-button kbd-sc39"><path fill="#333" class="kbd-box" stroke="#000" stroke-dashoffset="9.562" stroke-width="1.3" d="M62.418 95.06a2.137 2.137 0 0 0-2.142 2.14v12.24c0 1.186.956 2.14 2.142 2.14h105.164a2.137 2.137 0 0 0 2.142-2.14V97.2a2.137 2.137 0 0 0-2.142-2.14H71.414Z" paint-order="stroke markers fill"/><path fill="#999" d="M109.257 103.013q-.638-.184-.93-.45-.29-.269-.29-.661 0-.445.355-.734.356-.292.925-.292.387 0 .69.15.305.15.47.413.168.264.168.576h-.499q0-.34-.217-.535-.217-.196-.612-.196-.367 0-.574.163-.204.16-.204.447 0 .23.194.39.196.158.664.29.47.131.734.291.266.158.393.37.129.212.129.499 0 .457-.357.733-.356.274-.953.274-.388 0-.724-.147-.336-.15-.52-.408-.18-.259-.18-.587h.499q0 .341.25.54.254.197.675.197.392 0 .602-.16.209-.16.209-.437t-.194-.427q-.194-.152-.703-.3zm4.318.31q0 .638-.292 1.028t-.79.39q-.51 0-.802-.323v1.346h-.478v-3.87h.437l.023.31q.292-.362.812-.362.503 0 .795.38.295.38.295 1.057zm-.478-.055q0-.472-.202-.746-.201-.274-.552-.274-.435 0-.652.385v1.336q.215.382.657.382.343 0 .545-.271.204-.274.204-.812zm2.811 1.422q-.041-.083-.067-.295-.333.346-.796.346-.413 0-.68-.232-.263-.235-.263-.595 0-.436.33-.677.334-.242.936-.242h.465v-.22q0-.25-.15-.398-.15-.15-.441-.15-.256 0-.43.13-.172.129-.172.312h-.481q0-.21.147-.403.15-.196.403-.31.256-.114.561-.114.483 0 .757.243.274.24.284.664v1.287q0 .385.098.612v.042zm-.793-.365q.225 0 .426-.116.202-.116.292-.302v-.574h-.374q-.879 0-.879.514 0 .225.15.352.15.126.385.126zm3.067.026q.256 0 .447-.155t.212-.388h.452q-.013.24-.165.458-.153.217-.409.346-.253.13-.537.13-.571 0-.91-.38-.335-.383-.335-1.044v-.08q0-.409.15-.727.15-.317.428-.493.282-.176.664-.176.47 0 .78.282.313.281.334.731h-.452q-.02-.271-.207-.444-.183-.176-.455-.176-.364 0-.565.263-.2.261-.2.757v.09q0 .484.2.745.199.261.568.261zm2.809.39q-.569 0-.925-.372-.357-.375-.357-1v-.088q0-.416.158-.741.16-.328.444-.512.287-.186.62-.186.545 0 .848.36.302.358.302 1.028v.199h-1.894q.01.413.24.669.233.253.59.253.253 0 .428-.103.176-.104.308-.274l.292.227q-.352.54-1.054.54zm-.06-2.506q-.29 0-.486.212-.196.209-.242.589h1.4V103q-.02-.365-.196-.564-.176-.201-.476-.201z"/></g><g class="group-button kbd-sc138"><path fill="#333" class="kbd-box" stroke="#000" stroke-dashoffset="9.562" stroke-width="1.147" d="M-401.76 1.71h13.47c.926 0 1.671.744 1.671 1.67v9.549c0 .926-.745 1.671-1.67 1.671h-13.471a1.667 1.667 0 0 1-1.671-1.671V3.38c0-.926.745-1.67 1.67-1.67z" paint-order="stroke markers fill" transform="matrix(1.0018 0 0 1.28165 575.56 92.869)"/><path fill="#999" d="M179.16 104.297h-1.576l-.354.982h-.511l1.436-3.762h.434l1.44 3.762h-.51zm-1.426-.408h1.279l-.64-1.76zm3.245 1.39h-.478v-3.969h.478zm1.414-3.473v.677h.522v.37h-.522v1.733q0 .168.07.254.07.082.237.082.083 0 .227-.03v.387q-.188.052-.366.052-.32 0-.484-.194-.162-.194-.162-.55v-1.734h-.51v-.37h.51v-.677z"/></g><g class="group-button kbd-sc15C"><path fill="#333" class="kbd-box" stroke="#000" stroke-dashoffset="9.562" stroke-width="1.147" d="M-401.76 1.71h13.47c.926 0 1.671.744 1.671 1.67v9.549c0 .926-.745 1.671-1.67 1.671h-13.471a1.667 1.667 0 0 1-1.671-1.671V3.38c0-.926.745-1.67 1.67-1.67z" paint-order="stroke markers fill" transform="matrix(1.0018 0 0 1.28165 594.081 92.869)"/><path fill="#999" d="m195.243 104.041.073.496.105-.447.745-2.625h.418l.726 2.625.104.455.08-.506.584-2.574h.498l-.912 3.762h-.452l-.775-2.741-.06-.287-.059.287-.803 2.741h-.453l-.91-3.762h.497zm4.328 1.186h-.478v-2.796h.478zm-.517-3.537q0-.116.07-.197.073-.08.212-.08.14 0 .212.08.072.08.072.197 0 .116-.072.194-.073.077-.212.077-.14 0-.212-.077-.07-.078-.07-.194zm1.734.741.016.352q.32-.403.837-.403.886 0 .894 1v1.847h-.478v-1.85q-.003-.302-.14-.447-.134-.145-.42-.145-.233 0-.41.124-.175.124-.273.326v1.992h-.478v-2.796z"/></g><g class="group-button kbd-sc15D"><path fill="#333" class="kbd-box" stroke="#000" stroke-dashoffset="9.562" stroke-width="1.147" d="M-401.76 1.71h13.47c.926 0 1.671.744 1.671 1.67v9.549c0 .926-.745 1.671-1.67 1.671h-13.471a1.667 1.667 0 0 1-1.671-1.671V3.38c0-.926.745-1.67 1.67-1.67z" paint-order="stroke markers fill" transform="matrix(1.0018 0 0 1.28165 612.602 92.869)"/><path fill="#999" d="m211.276 101.413 1.23 3.07 1.23-3.07h.643v3.762h-.496v-1.465l.046-1.58-1.235 3.045h-.38l-1.232-3.038.049 1.573v1.465h-.496v-3.762zm5.064 3.814q-.568 0-.925-.372-.357-.375-.357-1v-.088q0-.416.158-.741.16-.328.444-.512.287-.186.62-.186.546 0 .848.36.302.358.302 1.028v.199h-1.894q.01.413.24.669.233.253.59.253.253 0 .429-.103.175-.104.307-.274l.292.227q-.351.54-1.054.54zm-.06-2.506q-.289 0-.485.212-.197.209-.243.589h1.4v-.036q-.02-.365-.196-.564-.176-.201-.475-.201zm2.155-.341.016.351q.32-.403.837-.403.886 0 .894 1v1.847h-.478v-1.85q-.003-.302-.14-.447-.134-.144-.42-.144-.233 0-.409.124-.176.124-.274.325v1.992h-.478v-2.795zm4.194 2.519q-.279.328-.819.328-.447 0-.682-.258-.233-.261-.235-.77v-1.82h.478v1.807q0 .635.516.635.548 0 .73-.408v-2.033h.477v2.795h-.455z"/></g><g class="group-button kbd-sc11D"><path fill="#333" class="kbd-box" stroke="#000" stroke-dashoffset="9.562" stroke-width="1.147" d="M-401.76 1.71h13.47c.926 0 1.671.744 1.671 1.67v9.549c0 .926-.745 1.671-1.67 1.671h-13.471a1.667 1.667 0 0 1-1.671-1.671V3.38c0-.926.745-1.67 1.67-1.67z" paint-order="stroke markers fill" transform="matrix(1.0018 0 0 1.28165 631.123 92.869)"/><path fill="#999" d="M234.513 104.085q-.07.597-.441.922-.37.323-.985.323-.667 0-1.07-.478-.4-.478-.4-1.279v-.361q0-.525.186-.923.189-.398.532-.61.344-.214.796-.214.6 0 .961.336.362.333.421.925h-.498q-.065-.45-.282-.651-.214-.202-.602-.202-.475 0-.747.352-.268.351-.268 1v.364q0 .612.255.974.256.362.716.362.413 0 .633-.186.222-.189.295-.654zm1.25-2.279v.677h.523v.37h-.522v1.733q0 .168.07.254.07.082.237.082.083 0 .228-.03v.387q-.189.052-.367.052-.32 0-.483-.194-.163-.194-.163-.55v-1.734h-.51v-.37h.51v-.677zm2.432 1.106q-.108-.018-.235-.018-.47 0-.638.4v1.985h-.478v-2.796h.465l.008.323q.235-.375.667-.375.14 0 .212.037zm.959 2.367h-.478v-3.969h.478z"/></g></g><g><g class="group-button kbd-sc2A"><path fill="#333" class="kbd-box" stroke="#000" stroke-dashoffset="9.562" stroke-width="1.272" d="M6.834 76.01a2.14 2.14 0 0 0-2.145 2.146v12.258a2.14 2.14 0 0 0 2.145 2.145h17.384a2.14 2.14 0 0 0 2.145-2.145V78.156a2.14 2.14 0 0 0-2.145-2.145H12.393Z" paint-order="stroke markers fill"/><path fill="#999" d="M11.608 84.594q-.638-.184-.93-.45-.29-.268-.29-.661 0-.445.354-.734.357-.292.925-.292.388 0 .69.15.305.15.47.413.168.264.168.577h-.498q0-.342-.217-.535-.217-.197-.613-.197-.367 0-.573.163-.204.16-.204.447 0 .23.193.39.197.158.664.29.47.131.734.292.266.157.393.37.13.211.13.498 0 .457-.357.734-.357.273-.954.273-.387 0-.723-.147-.336-.15-.52-.408-.18-.258-.18-.587h.498q0 .341.25.54.254.197.675.197.393 0 .602-.16.21-.16.21-.437t-.194-.426q-.194-.153-.703-.3zm2.434-.78q.318-.39.827-.39.886 0 .894 1v1.847h-.478v-1.85q-.003-.303-.14-.447-.134-.145-.421-.145-.233 0-.408.124-.176.124-.274.326v1.992h-.478v-3.969h.478zm2.956 2.457h-.478v-2.796h.478zm-.517-3.537q0-.117.07-.197.072-.08.212-.08t.211.08q.073.08.073.197 0 .116-.073.193-.072.078-.211.078-.14 0-.212-.078-.07-.077-.07-.193zm1.517 3.537v-2.426h-.442v-.37h.442v-.287q0-.45.24-.695.24-.245.68-.245.165 0 .328.044l-.026.387q-.122-.023-.259-.023-.232 0-.359.137-.126.134-.126.388v.294h.597v.37h-.597v2.426zm2.25-3.473v.677h.522v.37h-.522v1.733q0 .168.07.254.07.082.238.082.082 0 .227-.03v.387q-.189.051-.367.051-.32 0-.483-.193-.163-.194-.163-.55v-1.734h-.509v-.37h.51v-.677z"/></g><g class="group-button kbd-sc2B"><path fill="#333" class="kbd-box" stroke="#000" stroke-dashoffset="9.562" stroke-width="1.147" d="M-401.76 1.71h13.47c.926 0 1.671.744 1.671 1.67v9.549c0 .926-.745 1.671-1.67 1.671h-13.471a1.667 1.667 0 0 1-1.671-1.671V3.38c0-.926.745-1.67 1.67-1.67z" paint-order="stroke markers fill" transform="matrix(.9586 0 0 1.28375 414.718 73.816)"/><path fill="#999" d="M33.044 83.768h-.404v-4.675h.404zm4.723 1.427h.477l1.647 4.282h-.477Z"/></g><g class="group-button kbd-sc2C"><path fill="#333" class="kbd-box" stroke="#000" stroke-dashoffset="9.562" stroke-width="1.147" d="M-401.76 1.71h13.47c.926 0 1.671.744 1.671 1.67v9.549c0 .926-.745 1.671-1.67 1.671h-13.471a1.667 1.667 0 0 1-1.671-1.671V3.38c0-.926.745-1.67 1.67-1.67z" paint-order="stroke markers fill" transform="matrix(.9586 0 0 1.28375 432.478 73.802)"/><path fill="#999" d="m53.178 84.336 1.276-2.456h.733L53.5 84.947v1.824h-.645v-1.824L51.17 81.88h.74z" aria-label="Y" font-size="6.879"/></g><g class="group-button kbd-sc2D"><path fill="#333" class="kbd-box" stroke="#000" stroke-dashoffset="9.562" stroke-width="1.147" d="M-401.76 1.71h13.47c.926 0 1.671.744 1.671 1.67v9.549c0 .926-.745 1.671-1.67 1.671h-13.471a1.667 1.667 0 0 1-1.671-1.671V3.38c0-.926.745-1.67 1.67-1.67z" paint-order="stroke markers fill" transform="matrix(.9586 0 0 1.28375 450.2 73.802)"/><path fill="#999" d="m71.578 83.755 1.173-1.875h.759l-1.545 2.426 1.582 2.465h-.766l-1.203-1.908-1.209 1.908h-.762l1.585-2.465-1.548-2.426h.755z" aria-label="X" font-size="6.879"/></g><g class="group-button kbd-sc2E"><path fill="#333" class="kbd-box" stroke="#000" stroke-dashoffset="9.562" stroke-width="1.147" d="M-401.76 1.71h13.47c.926 0 1.671.744 1.671 1.67v9.549c0 .926-.745 1.671-1.67 1.671h-13.471a1.667 1.667 0 0 1-1.671-1.671V3.38c0-.926.745-1.67 1.67-1.67z" paint-order="stroke markers fill" transform="matrix(.9586 0 0 1.28375 467.922 73.802)"/><path fill="#999" d="M91.302 85.22q-.09.775-.574 1.198-.48.42-1.28.42-.866 0-1.39-.621-.52-.622-.52-1.663v-.47q0-.682.24-1.2.246-.517.693-.792.447-.279 1.034-.279.78 0 1.25.437.47.433.547 1.202h-.648q-.084-.584-.366-.846-.279-.262-.783-.262-.618 0-.97.457-.35.457-.35 1.3v.473q0 .796.333 1.267.332.47.93.47.538 0 .823-.242.29-.245.383-.85z" aria-label="C" font-size="6.879"/></g><g class="group-button kbd-sc2F"><path fill="#333" class="kbd-box" stroke="#000" stroke-dashoffset="9.562" stroke-width="1.147" d="M-401.76 1.71h13.47c.926 0 1.671.744 1.671 1.67v9.549c0 .926-.745 1.671-1.67 1.671h-13.471a1.667 1.667 0 0 1-1.671-1.671V3.38c0-.926.745-1.67 1.67-1.67z" paint-order="stroke markers fill" transform="matrix(.9586 0 0 1.28375 485.72 73.857)"/><path fill="#999" d="m107.046 85.915 1.397-4.035h.706l-1.814 4.891h-.571l-1.81-4.89h.701z" aria-label="V" font-size="6.879"/></g><g class="group-button kbd-sc30"><path fill="#333" class="kbd-box" stroke="#000" stroke-dashoffset="9.562" stroke-width="1.147" d="M-401.76 1.71h13.47c.926 0 1.671.744 1.671 1.67v9.549c0 .926-.745 1.671-1.67 1.671h-13.471a1.667 1.667 0 0 1-1.671-1.671V3.38c0-.926.745-1.67 1.67-1.67z" paint-order="stroke markers fill" transform="matrix(.9586 0 0 1.28375 503.366 73.802)"/><path fill="#999" d="M123.033 86.716v-4.891h1.599q.796 0 1.196.33.403.328.403.973 0 .343-.195.608-.195.262-.53.407.396.11.624.423.232.309.232.739 0 .658-.427 1.034-.426.377-1.206.377zm.645-2.288v1.76h1.065q.45 0 .709-.232.262-.235.262-.644 0-.884-.961-.884zm0-.517h.974q.423 0 .675-.212.256-.211.256-.574 0-.403-.236-.585-.235-.184-.715-.184h-.954z" aria-label="B" font-size="6.879"/></g><g class="group-button kbd-sc31"><path fill="#333" class="kbd-box" stroke="#000" stroke-dashoffset="9.562" stroke-width="1.147" d="M-401.76 1.71h13.47c.926 0 1.671.744 1.671 1.67v9.549c0 .926-.745 1.671-1.67 1.671h-13.471a1.667 1.667 0 0 1-1.671-1.671V3.38c0-.926.745-1.67 1.67-1.67z" paint-order="stroke markers fill" transform="matrix(.9586 0 0 1.28375 521.088 73.802)"/><path fill="#999" d="M144.299 86.716h-.648l-2.463-3.77v3.77h-.648v-4.891h.649l2.468 3.786v-3.786h.642z" aria-label="N" font-size="6.879"/></g><g class="group-button kbd-sc32"><path fill="#333" class="kbd-box" stroke="#000" stroke-dashoffset="9.562" stroke-width="1.147" d="M-401.76 1.71h13.47c.926 0 1.671.744 1.671 1.67v9.549c0 .926-.745 1.671-1.67 1.671h-13.471a1.667 1.667 0 0 1-1.671-1.671V3.38c0-.926.745-1.67 1.67-1.67z" paint-order="stroke markers fill" transform="matrix(.9586 0 0 1.28375 538.81 73.802)"/><path fill="#999" d="m158.541 81.825 1.599 3.99 1.599-3.99h.836v4.89h-.645v-1.904l.06-2.056-1.605 3.96h-.494l-1.602-3.95.064 2.046v1.905h-.645v-4.891z" aria-label="M" font-size="6.879"/></g><g class="group-button kbd-sc33"><path fill="#333" class="kbd-box" stroke="#000" stroke-dashoffset="9.562" stroke-width="1.147" d="M-401.76 1.71h13.47c.926 0 1.671.744 1.671 1.67v9.549c0 .926-.745 1.671-1.67 1.671h-13.471a1.667 1.667 0 0 1-1.671-1.671V3.38c0-.926.745-1.67 1.67-1.67z" paint-order="stroke markers fill" transform="matrix(.9586 0 0 1.28375 556.532 73.802)"/><path fill="#999" d="m174.495 80.819 1.941.784v.608l-2.536-1.175v-.453l2.536-1.172v.608z" font-size="6.35"/><path fill="#999" d="M180.618 81.705q.005-.322.073-.51.068-.186.276-.414l.355-.365q.228-.258.228-.553 0-.284-.15-.444-.148-.163-.433-.163-.276 0-.444.147-.168.146-.168.392h-.501q.005-.438.311-.707.31-.27.802-.27.512 0 .797.276.287.273.287.753 0 .474-.44.934l-.294.293q-.198.22-.198.63zm-.022.859q0-.122.073-.204.076-.084.222-.084.147 0 .222.084.076.082.076.204 0 .121-.076.203-.075.078-.222.078-.146 0-.222-.078-.073-.082-.073-.203zm.31 7.159-.285-.195q.255-.355.266-.731v-.453h.49v.393q0 .274-.135.547-.133.274-.336.439z"/></g><g class="group-button kbd-sc34"><path fill="#333" class="kbd-box" stroke="#000" stroke-dashoffset="9.562" stroke-width="1.147" d="M-401.76 1.71h13.47c.926 0 1.671.744 1.671 1.67v9.549c0 .926-.745 1.671-1.67 1.671h-13.471a1.667 1.667 0 0 1-1.671-1.671V3.38c0-.926.745-1.67 1.67-1.67z" paint-order="stroke markers fill" transform="matrix(.9586 0 0 1.28375 574.254 73.802)"/><path fill="#999" d="m193.838 80.883-2.05-.803v-.59l2.648 1.173v.452l-2.648 1.175v-.595z" font-size="6.35"/><path fill="#999" d="M199.173 82.635q0-.13.076-.216.078-.087.233-.087.154 0 .233.087.081.086.081.216 0 .125-.081.209-.079.084-.233.084-.155 0-.233-.084-.076-.084-.076-.209zm.003-2.391q0-.13.076-.217.078-.087.233-.087.154 0 .233.087.081.087.081.217 0 .124-.081.208-.079.084-.233.084-.155 0-.233-.084-.076-.084-.076-.208zm-.547 8.513q0-.13.076-.216.078-.087.233-.087.154 0 .233.087.081.086.081.216 0 .125-.081.209-.079.084-.233.084-.155 0-.233-.084-.076-.084-.076-.209z"/></g><g class="group-button kbd-sc35"><path fill="#333" class="kbd-box" stroke="#000" stroke-dashoffset="9.562" stroke-width="1.147" d="M-401.76 1.71h13.47c.926 0 1.671.744 1.671 1.67v9.549c0 .926-.745 1.671-1.67 1.671h-13.471a1.667 1.667 0 0 1-1.671-1.671V3.38c0-.926.745-1.67 1.67-1.67z" paint-order="stroke markers fill" transform="matrix(.9586 0 0 1.28375 591.976 73.802)"/><path fill="#999" d="M213.715 79.964h-2.48v-.409h2.48zm1.677 7.55h-1.322v-.408h1.322z"/></g><g class="group-button kbd-sc36"><path fill="#333" class="kbd-box" stroke="#000" stroke-dashoffset="9.562" stroke-width="1.3" d="M225.176 75.924a2.138 2.138 0 0 0-2.142 2.142v12.238c0 1.187.955 2.142 2.142 2.142h34.934a2.137 2.137 0 0 0 2.142-2.142V78.066a2.138 2.138 0 0 0-2.142-2.142h-22.376z" paint-order="stroke markers fill"/><path fill="#999" d="M238.725 84.494q-.639-.184-.93-.45-.29-.268-.29-.661 0-.445.354-.734.357-.292.925-.292.388 0 .69.15.305.15.47.413.168.264.168.576h-.499q0-.34-.217-.534-.217-.197-.612-.197-.367 0-.574.163-.204.16-.204.447 0 .23.194.39.196.158.664.29.47.131.734.292.266.157.393.369.129.212.129.499 0 .457-.357.734-.356.273-.953.273-.388 0-.724-.147-.336-.15-.519-.408-.18-.259-.18-.587h.498q0 .341.25.54.254.197.675.197.393 0 .602-.16.21-.16.21-.437t-.195-.426q-.193-.153-.702-.3zm2.434-.78q.317-.39.826-.39.887 0 .894 1v1.847h-.478v-1.85q-.003-.303-.14-.447-.134-.145-.42-.145-.233 0-.409.124-.175.124-.273.326v1.992h-.479v-3.969h.479zm2.955 2.457h-.478v-2.796h.478zm-.516-3.538q0-.116.07-.196.072-.08.211-.08.14 0 .212.08.072.08.072.196 0 .117-.072.194-.072.078-.212.078t-.212-.078q-.07-.077-.07-.194zm1.516 3.538v-2.427h-.441v-.369h.441v-.287q0-.45.24-.695.24-.245.68-.245.166 0 .328.044l-.025.387q-.122-.023-.259-.023-.232 0-.359.137-.127.134-.127.387v.295h.597v.37h-.597v2.426zm2.25-3.473v.677h.523v.37h-.522v1.733q0 .168.07.253.07.083.237.083.083 0 .228-.03v.387q-.189.051-.367.051-.32 0-.483-.193-.163-.194-.163-.55v-1.735h-.51v-.369h.51v-.677z"/></g></g><g><g class="group-button kbd-sc3A"><path fill="#333" class="kbd-box" stroke="#000" stroke-dashoffset="9.562" stroke-width="1.688" d="M7.17 57.07c-1.211 0-2.187.942-2.187 2.113v12.078c0 1.17.976 2.113 2.187 2.113h22.822c.043 0 .085-.001.127-.003h2.575c1.17 0 2.113-.943 2.113-2.113V59.186c0-1.17-.942-2.112-2.113-2.112H30.12a2.214 2.214 0 0 0-.127-.004h-18.16Z" paint-order="stroke markers fill"/><path fill="#999" d="M10.886 65.425q-.056.477-.354.738-.295.258-.787.258-.534 0-.856-.382-.32-.383-.32-1.024v-.289q0-.42.148-.738.151-.318.426-.488.275-.171.637-.171.48 0 .769.268.29.267.337.74h-.4q-.051-.36-.225-.52-.171-.162-.481-.162-.38 0-.598.281-.215.281-.215.8v.292q0 .49.205.779.205.29.573.29.33 0 .506-.15.178-.15.236-.522zm1.862.955q-.033-.067-.054-.236-.266.277-.636.277-.331 0-.544-.186-.21-.188-.21-.476 0-.349.264-.541.266-.194.748-.194h.372v-.176q0-.2-.12-.318-.12-.12-.353-.12-.205 0-.343.103-.139.103-.139.25h-.384q0-.167.118-.322.12-.157.322-.248.205-.091.449-.091.386 0 .605.194.22.192.228.531v1.03q0 .308.078.49v.033zm-.634-.292q.18 0 .34-.093.162-.093.234-.242v-.459h-.3q-.702 0-.702.412 0 .18.12.28.12.102.308.102zm3.445-.802q0 .51-.233.823-.234.312-.633.312-.407 0-.64-.258v1.076h-.383v-3.096h.35l.018.248q.233-.29.649-.29.403 0 .637.305.235.303.235.845zm-.382-.043q0-.379-.161-.598-.162-.219-.443-.219-.347 0-.52.308v1.069q.171.306.524.306.275 0 .437-.217.163-.22.163-.65zm2.17.543q0-.155-.118-.24-.115-.086-.407-.148-.29-.062-.46-.15-.17-.086-.253-.206-.08-.12-.08-.285 0-.275.231-.465.234-.19.595-.19.38 0 .616.196.238.196.238.502h-.384q0-.157-.135-.27-.132-.114-.335-.114-.208 0-.326.09-.118.092-.118.239 0 .138.11.208.109.07.394.135.288.064.465.153.178.089.263.215.087.124.087.303 0 .3-.24.482-.24.18-.622.18-.269 0-.476-.095-.206-.095-.324-.265-.116-.171-.116-.37h.382q.01.193.153.306.145.112.38.112.218 0 .348-.087.132-.089.132-.236zm1.34.27h1.426v.324h-1.825v-3.01h.399zm1.717-.815q0-.329.129-.592.13-.262.36-.405.23-.142.526-.142.457 0 .738.316.284.316.284.841v.027q0 .327-.127.587-.124.259-.357.403-.232.145-.533.145-.455 0-.738-.316-.282-.317-.282-.837zm.385.045q0 .372.171.597.174.226.464.226.291 0 .463-.228.171-.229.171-.64 0-.368-.176-.596-.173-.23-.463-.23-.283 0-.456.226-.174.226-.174.645zm3.028.823q.205 0 .358-.124t.17-.31h.361q-.01.192-.132.366-.122.173-.327.277-.202.103-.43.103-.457 0-.727-.304-.27-.306-.27-.835v-.064q0-.327.12-.58.12-.255.344-.396.225-.14.531-.14.376 0 .624.225.25.225.267.585h-.362q-.016-.217-.165-.356-.147-.14-.364-.14-.291 0-.453.21-.159.21-.159.606v.073q0 .386.16.595.159.209.454.209zm1.943-.765-.24.25v.786h-.382v-3.175h.382v1.92l.205-.246.697-.736h.465l-.87.934.971 1.303h-.449z"/></g><g class="group-button kbd-sc1E"><path fill="#333" class="kbd-box" stroke="#000" stroke-dashoffset="9.562" stroke-width="1.147" d="M-401.76 1.71h13.47c.926 0 1.671.744 1.671 1.67v9.549c0 .926-.745 1.671-1.67 1.671h-13.471a1.667 1.667 0 0 1-1.671-1.671V3.38c0-.926.745-1.67 1.67-1.67z" paint-order="stroke markers fill" transform="matrix(.96298 0 0 1.28354 425.24 54.754)"/><path fill="#999" d="M45.757 66.445h-2.05l-.46 1.276h-.664l1.867-4.89h.564l1.871 4.89h-.661zm-1.854-.531h1.662l-.833-2.288Z" aria-label="A" font-size="6.879"/></g><g class="group-button kbd-sc1F"><path fill="#333" class="kbd-box" stroke="#000" stroke-dashoffset="9.562" stroke-width="1.147" d="M-401.76 1.71h13.47c.926 0 1.671.744 1.671 1.67v9.549c0 .926-.745 1.671-1.67 1.671h-13.471a1.667 1.667 0 0 1-1.671-1.671V3.38c0-.926.745-1.67 1.67-1.67z" paint-order="stroke markers fill" transform="matrix(.96298 0 0 1.28354 443.042 54.754)"/><path fill="#999" d="M62.273 65.541q-.83-.238-1.209-.584-.376-.35-.376-.86 0-.578.46-.954.464-.38 1.203-.38.503 0 .896.195.397.195.612.537.218.343.218.75h-.648q0-.444-.282-.696-.282-.255-.796-.255-.477 0-.746.212-.265.208-.265.58 0 .3.251.508.256.205.864.376.611.171.954.38.346.205.51.48.168.275.168.648 0 .595-.463.954-.464.356-1.24.356-.504 0-.94-.191-.437-.195-.675-.53-.236-.337-.236-.763h.649q0 .443.325.702.33.255.877.255.51 0 .783-.208.272-.209.272-.568 0-.36-.252-.554-.252-.198-.914-.39z" aria-label="S" font-size="6.879"/></g><g class="group-button kbd-sc20"><path fill="#333" class="kbd-box" stroke="#000" stroke-dashoffset="9.562" stroke-width="1.147" d="M-401.76 1.71h13.47c.926 0 1.671.744 1.671 1.67v9.549c0 .926-.745 1.671-1.67 1.671h-13.471a1.667 1.667 0 0 1-1.671-1.671V3.38c0-.926.745-1.67 1.67-1.67z" paint-order="stroke markers fill" transform="matrix(.96298 0 0 1.28354 460.845 54.754)"/><path fill="#999" d="M78.229 67.721v-4.89h1.38q.639 0 1.13.282.49.282.755.802.269.521.272 1.196v.313q0 .691-.269 1.212-.265.52-.762.8-.494.278-1.152.285zm.645-4.36v3.833h.678q.746 0 1.16-.464.416-.463.416-1.32v-.285q0-.833-.393-1.294-.39-.463-1.109-.47Z" aria-label="D" font-size="6.879"/></g><g class="group-button kbd-sc21"><path fill="#333" class="kbd-box" stroke="#000" stroke-dashoffset="9.562" stroke-width="1.147" d="M-401.76 1.71h13.47c.926 0 1.671.744 1.671 1.67v9.549c0 .926-.745 1.671-1.67 1.671h-13.471a1.667 1.667 0 0 1-1.671-1.671V3.38c0-.926.745-1.67 1.67-1.67z" paint-order="stroke markers fill" transform="matrix(.96298 0 0 1.28354 478.648 54.754)"/><path fill="#999" d="M99.245 65.561h-2.052v2.16h-.645v-4.89h3.03v.53h-2.385v1.673h2.052z" aria-label="F" font-size="6.879"/></g><g class="group-button kbd-sc22"><path fill="#333" class="kbd-box" stroke="#000" stroke-dashoffset="9.562" stroke-width="1.147" d="M-401.76 1.71h13.47c.926 0 1.671.744 1.671 1.67v9.549c0 .926-.745 1.671-1.67 1.671h-13.471a1.667 1.667 0 0 1-1.671-1.671V3.38c0-.926.745-1.67 1.67-1.67z" paint-order="stroke markers fill" transform="matrix(.96298 0 0 1.28354 496.451 54.754)"/><path fill="#999" d="M117.616 67.076q-.249.356-.696.534-.443.175-1.034.175-.598 0-1.062-.279-.463-.282-.719-.8-.251-.517-.258-1.198v-.427q0-1.105.514-1.713.517-.608 1.45-.608.767 0 1.234.393.466.39.57 1.108h-.644q-.182-.97-1.156-.97-.648 0-.984.456-.333.454-.336 1.317v.4q0 .823.376 1.31.376.484 1.018.484.363 0 .635-.081.272-.08.45-.272v-1.099h-1.132v-.524h1.774z" aria-label="G" font-size="6.879"/></g><g class="group-button kbd-sc23"><path fill="#333" class="kbd-box" stroke="#000" stroke-dashoffset="9.562" stroke-width="1.147" d="M-401.76 1.71h13.47c.926 0 1.671.744 1.671 1.67v9.549c0 .926-.745 1.671-1.67 1.671h-13.471a1.667 1.667 0 0 1-1.671-1.671V3.38c0-.926.745-1.67 1.67-1.67z" paint-order="stroke markers fill" transform="matrix(.96298 0 0 1.28354 514.254 54.754)"/><path fill="#999" d="M135.597 67.721h-.649v-2.26h-2.465v2.26h-.645v-4.89h.645v2.102h2.465V62.83h.649z" aria-label="H" font-size="6.879"/></g><g class="group-button kbd-sc24"><path fill="#333" class="kbd-box" stroke="#000" stroke-dashoffset="9.562" stroke-width="1.147" d="M-401.76 1.71h13.47c.926 0 1.671.744 1.671 1.67v9.549c0 .926-.745 1.671-1.67 1.671h-13.471a1.667 1.667 0 0 1-1.671-1.671V3.38c0-.926.745-1.67 1.67-1.67z" paint-order="stroke markers fill" transform="matrix(.96298 0 0 1.28354 532.057 54.754)"/><path fill="#999" d="M152.948 62.795h.648v3.463q0 .702-.423 1.099-.42.396-1.122.396-.729 0-1.135-.373-.407-.373-.407-1.045h.645q0 .42.229.655.231.236.668.236.4 0 .645-.252.249-.252.252-.706z" aria-label="J" font-size="6.879"/></g><g class="group-button kbd-sc25"><path fill="#333" class="kbd-box" stroke="#000" stroke-dashoffset="9.562" stroke-width="1.147" d="M-401.76 1.71h13.47c.926 0 1.671.744 1.671 1.67v9.549c0 .926-.745 1.671-1.67 1.671h-13.471a1.667 1.667 0 0 1-1.671-1.671V3.38c0-.926.745-1.67 1.67-1.67z" paint-order="stroke markers fill" transform="matrix(.96298 0 0 1.28354 549.86 54.754)"/><path fill="#999" d="m168.581 65.447-.598.621v1.653h-.645v-4.89h.645v2.418l2.173-2.419h.78l-1.925 2.16 2.076 2.731h-.773z" aria-label="K" font-size="6.879"/></g><g class="group-button kbd-sc26"><path fill="#333" class="kbd-box" stroke="#000" stroke-dashoffset="9.562" stroke-width="1.147" d="M-401.76 1.71h13.47c.926 0 1.671.744 1.671 1.67v9.549c0 .926-.745 1.671-1.67 1.671h-13.471a1.667 1.667 0 0 1-1.671-1.671V3.38c0-.926.745-1.67 1.67-1.67z" paint-order="stroke markers fill" transform="matrix(.96298 0 0 1.28354 567.664 54.754)"/><path fill="#999" d="M186.226 67.194h2.318v.527h-2.966v-4.89h.648z" aria-label="L" font-size="6.879"/></g><g class="group-button kbd-sc27"><path fill="#333" class="kbd-box" stroke="#000" stroke-dashoffset="9.562" stroke-width="1.147" d="M-401.76 1.71h13.47c.926 0 1.671.744 1.671 1.67v9.549c0 .926-.745 1.671-1.67 1.671h-13.471a1.667 1.667 0 0 1-1.671-1.671V3.38c0-.926.745-1.67 1.67-1.67z" paint-order="stroke markers fill" transform="matrix(.96298 0 0 1.28354 585.467 54.754)"/><path fill="#999" d="m202.372 60.163-.1 1.203h-.373l.003-1.66h.47zm.907 0-.1 1.203h-.373l.003-1.66h.47z"/><path fill="#999" d="M206.62 70.41q-.306.36-.9.36-.492 0-.75-.284-.257-.287-.26-.847v-2.001h.526v1.987q0 .699.569.699.602 0 .801-.45v-2.236h.526v3.075h-.5zm-.073-3.73q0 .247-.177.415-.176.165-.435.165-.261 0-.437-.168-.174-.167-.174-.412 0-.244.174-.418.176-.173.437-.173.262 0 .435.173.177.174.177.418zm-.941 0q0 .134.094.23.096.097.235.097.137 0 .234-.094.096-.094.096-.233 0-.14-.096-.236-.094-.1-.234-.1-.142 0-.235.1-.094.1-.094.236z" font-size="5.821"/></g><g class="group-button kbd-sc28"><path fill="#333" class="kbd-box" stroke="#000" stroke-dashoffset="9.562" stroke-width="1.147" d="M-401.76 1.71h13.47c.926 0 1.671.744 1.671 1.67v9.549c0 .926-.745 1.671-1.67 1.671h-13.471a1.667 1.667 0 0 1-1.671-1.671V3.38c0-.926.745-1.67 1.67-1.67z" paint-order="stroke markers fill" transform="matrix(.96298 0 0 1.28354 603.27 54.754)"/><path fill="#999" d="M220.332 62.551h-.452l-.035-2.83h.525zm-.506.862q0-.122.073-.204.076-.084.222-.084.146 0 .222.084.076.082.076.204 0 .121-.076.203-.076.078-.222.078-.146 0-.222-.078-.073-.082-.073-.203zm5.414 5.186q0 .512-.504.742.187.133.285.317.097.184.097.455 0 .455-.352.723-.352.271-.97.271-.303 0-.576-.076-.271-.075-.46-.23-.377-.306-.377-.861l.503-.006q0 .353.244.556.244.206.667.206.368 0 .593-.16.225-.157.225-.417 0-.241-.193-.382-.192-.144-.758-.312-.493-.13-.753-.279-.26-.151-.387-.36-.125-.211-.125-.512 0-.504.493-.742-.179-.133-.276-.317-.095-.184-.095-.455 0-.45.36-.72.363-.271.964-.271.629 0 .98.306.353.306.353.861h-.501q0-.339-.228-.547-.227-.211-.604-.211-.384 0-.604.157-.216.154-.216.42 0 .186.075.295.076.108.258.197.184.087.571.195.39.109.618.206.23.098.382.23.154.13.233.307.078.173.078.414zm-1.47-.704q-.244-.065-.447-.138-.217.051-.32.19-.1.135-.1.322 0 .19.073.298.073.108.252.197.181.09.566.2.384.112.504.158.21-.054.325-.19.113-.138.113-.325 0-.238-.19-.384-.186-.15-.777-.328z"/></g><g class="group-button kbd-sc1C"><path fill="#333" class="kbd-box" stroke="#000" stroke-dashoffset="9.562" stroke-width="1.306" d="M234.865 56.877a2.153 2.153 0 0 0-2.152 2.163V71.4c0 1.198.96 2.163 2.152 2.163h25.243c1.187 0 2.141-.965 2.141-2.163V59.04a2.147 2.147 0 0 0-2.14-2.163h-22.005z" paint-order="stroke markers fill"/><g fill="#999"><path d="M246.428 65.519h-1.63v1.333h1.893v.406h-2.39v-3.763h2.364v.409h-1.868v1.209h1.63zm1.258-1.057.016.351q.32-.403.837-.403.886 0 .894 1v1.848h-.478v-1.85q-.003-.303-.14-.447-.134-.145-.421-.145-.233 0-.408.124-.176.124-.274.325v1.993h-.478v-2.796zm3.116-.677v.677h.522v.37h-.522v1.733q0 .168.07.253.07.083.238.083.082 0 .227-.031v.388q-.189.051-.367.051-.32 0-.483-.194-.163-.193-.163-.55v-1.734h-.509v-.37h.51v-.676zm2.24 3.524q-.568 0-.925-.372-.356-.375-.356-1v-.088q0-.416.157-.741.16-.328.445-.512.287-.186.62-.186.545 0 .847.36.303.358.303 1.028v.199h-1.894q.01.413.24.669.233.253.59.253.252 0 .428-.103.176-.104.308-.274l.292.227q-.352.54-1.055.54zm-.06-2.506q-.288 0-.485.212-.196.21-.243.589h1.4v-.036q-.02-.365-.196-.564-.175-.201-.475-.201zm3.055.088q-.109-.018-.235-.018-.47 0-.638.4v1.985h-.478v-2.796h.465l.008.323q.235-.375.666-.375.14 0 .212.036zM239.968 68.421a.376.376 0 0 1-.093-.05c-.022-.018-.31-.303-.639-.634-.668-.67-.647-.645-.648-.787 0-.144-.032-.105.669-.808.707-.709.681-.688.821-.687.062 0 .09.006.137.027.16.074.236.256.175.419-.022.057-.045.084-.264.305l-.24.242-.15.076c-.099.05-.145.078-.135.083.01.003.495.005 1.08.003l1.064-.003.077-.024a.502.502 0 0 0 .377-.376l.023-.078.006-1.049.006-1.049.026-.051a.374.374 0 0 1 .161-.162.379.379 0 0 1 .276-.001.322.322 0 0 1 .156.149l.036.066v2.118l-.024.117a1.225 1.225 0 0 1-.33.651 1.232 1.232 0 0 1-.646.33c-.112.024-.113.024-1.21.027-.688.002-1.098.007-1.098.013 0 .005.064.042.142.082l.143.072.233.223c.244.235.276.272.298.348a.333.333 0 0 1-.428.408z"/></g></g><g class="group-button kbd-sc151"><path fill="#333" class="kbd-box" stroke="#000" stroke-dashoffset="9.562" stroke-width="1.147" d="M-401.76 1.71h13.47c.926 0 1.671.744 1.671 1.67v9.549c0 .926-.745 1.671-1.67 1.671h-13.471a1.667 1.667 0 0 1-1.671-1.671V3.38c0-.926.745-1.67 1.67-1.67z" paint-order="stroke markers fill" transform="matrix(1.0018 0 0 1.28165 668.165 54.769)"/><path fill="#999" d="M268.027 65.107v1.173h-.397v-2.997h1.11q.495 0 .774.251.28.252.28.665 0 .437-.274.673-.273.235-.784.235zm0-.323h.714q.318 0 .487-.148.17-.15.17-.433 0-.267-.17-.428-.17-.16-.465-.167h-.736zm2.096.364q0-.52.242-.827.242-.309.641-.309.41 0 .639.288l.018-.247h.35v2.174q0 .432-.259.681-.256.25-.69.25-.242 0-.473-.104-.232-.102-.354-.282l.199-.228q.245.303.601.303.28 0 .434-.157.157-.156.157-.44v-.192q-.23.264-.626.264-.393 0-.637-.315-.242-.315-.242-.859zm.385.043q0 .377.155.593.155.214.434.214.362 0 .531-.327v-1.017q-.175-.319-.527-.319-.279 0-.436.216-.157.216-.157.64zm2.141 1.09v-2.998h.85q.393 0 .694.173.302.173.466.492.165.32.167.733v.191q0 .424-.165.744-.164.319-.47.49-.303.17-.709.174zm.397-2.673v2.35h.418q.459 0 .713-.285.256-.284.256-.809v-.175q0-.51-.242-.792-.24-.284-.682-.289zm2.681.445.013.28q.256-.321.67-.321.708 0 .715.797v1.471h-.383v-1.473q-.002-.241-.111-.357-.108-.115-.337-.115-.186 0-.327.099-.14.099-.22.26v1.586h-.382v-2.227z"/></g></g><g><g class="group-button kbd-scF"><path fill="#333" class="kbd-box" stroke="#000" stroke-dashoffset="9.562" stroke-width="1.306" d="M6.934 37.787a2.147 2.147 0 0 0-2.141 2.163v12.36c0 1.199.955 2.163 2.141 2.163h19.895a2.147 2.147 0 0 0 2.14-2.162V39.95a2.147 2.147 0 0 0-2.14-2.164H10.116Z" paint-order="stroke markers fill"/><path fill="#999" d="M15.618 44.735h-1.21v3.354h-.493v-3.354h-1.207v-.408h2.91zm1.917 3.354q-.041-.083-.067-.295-.334.347-.796.347-.414 0-.68-.233-.263-.235-.263-.594 0-.437.33-.677.334-.243.936-.243h.465v-.22q0-.25-.15-.398-.15-.15-.442-.15-.256 0-.429.13-.173.129-.173.312h-.48q0-.209.147-.403.15-.196.403-.31.256-.113.56-.113.484 0 .758.242.274.24.284.664v1.287q0 .385.098.613v.04zm-.793-.364q.224 0 .426-.117.202-.116.292-.302v-.574h-.375q-.878 0-.878.515 0 .224.15.35.15.128.385.128zm4.312-1.003q0 .64-.294 1.031-.295.388-.791.388-.53 0-.82-.375l-.022.323h-.44V44.12h.478v1.48q.29-.358.799-.358.509 0 .798.384.292.385.292 1.055zm-.478-.054q0-.489-.189-.755-.188-.266-.542-.266-.473 0-.68.44v1.209q.22.439.685.439.344 0 .535-.266.191-.266.191-.801z"/></g><g class="group-button kbd-sc10"><path fill="#333" class="kbd-box" stroke="#000" stroke-dashoffset="9.562" stroke-width="1.147" d="M-401.76 1.71h13.47c.926 0 1.671.744 1.671 1.67v9.549c0 .926-.745 1.671-1.67 1.671h-13.471a1.667 1.667 0 0 1-1.671-1.671V3.38c0-.926.745-1.67 1.67-1.67z" paint-order="stroke markers fill" transform="matrix(.95291 0 0 1.28177 415.16 35.678)"/><path fill="#999" d="M40.488 45.922q0 .666-.201 1.148-.201.48-.565.75l.781.644-.393.382-.922-.77q-.216.057-.456.057-.517 0-.916-.265-.4-.268-.621-.76-.22-.495-.225-1.145v-.331q0-.662.219-1.17.219-.508.618-.776.402-.271.919-.271.528 0 .927.268.403.268.619.773.216.501.216 1.173zm-.576-.296q0-.81-.31-1.25-.306-.44-.876-.44-.544 0-.859.438-.312.435-.321 1.21v.338q0 .789.312 1.243.315.454.874.454.558 0 .864-.426.307-.429.316-1.227z" aria-label="Q" font-size="6.302"/></g><g class="group-button kbd-sc11"><path fill="#333" class="kbd-box" stroke="#000" stroke-dashoffset="9.562" stroke-width="1.147" d="M-401.76 1.71h13.47c.926 0 1.671.744 1.671 1.67v9.549c0 .926-.745 1.671-1.67 1.671h-13.471a1.667 1.667 0 0 1-1.671-1.671V3.38c0-.926.745-1.67 1.67-1.67z" paint-order="stroke markers fill" transform="matrix(.95291 0 0 1.28177 432.777 35.678)"/><path fill="#999" d="m55.05 46.979.085.605.123-.545.864-3.205h.487l.843 3.205.12.555.093-.618.679-3.142h.58l-1.06 4.592h-.526l-.9-3.346-.07-.35-.069.35-.933 3.346h-.526l-1.056-4.592h.576z" aria-label="W" font-size="6.302"/></g><g class="group-button kbd-sc12"><path fill="#333" class="kbd-box" stroke="#000" stroke-dashoffset="9.562" stroke-width="1.147" d="M-401.76 1.71h13.47c.926 0 1.671.744 1.671 1.67v9.549c0 .926-.745 1.671-1.67 1.671h-13.471a1.667 1.667 0 0 1-1.671-1.671V3.38c0-.926.745-1.67 1.67-1.67z" paint-order="stroke markers fill" transform="matrix(.95291 0 0 1.28177 450.394 35.678)"/><path fill="#999" d="M75.052 46.304h-1.894v1.627h2.2v.495h-2.776v-4.592h2.747v.499h-2.17v1.476h1.893z" aria-label="E" font-size="6.302"/></g><g class="group-button kbd-sc13"><path fill="#333" class="kbd-box" stroke="#000" stroke-dashoffset="9.562" stroke-width="1.147" d="M-401.76 1.71h13.47c.926 0 1.671.744 1.671 1.67v9.549c0 .926-.745 1.671-1.67 1.671h-13.471a1.667 1.667 0 0 1-1.671-1.671V3.38c0-.926.745-1.67 1.67-1.67z" paint-order="stroke markers fill" transform="matrix(.95291 0 0 1.28177 468.01 35.678)"/><path fill="#999" d="M91.607 46.569H90.58v1.857H90v-4.592h1.448q.738 0 1.134.354.4.353.4 1.028 0 .429-.222.747-.22.319-.613.476l1.027 1.95v.037h-.619zm-1.027-.495h.886q.429 0 .681-.234.255-.233.255-.624 0-.426-.243-.653-.24-.227-.696-.23h-.883z" aria-label="R" font-size="6.302"/></g><g class="group-button kbd-sc14"><path fill="#333" class="kbd-box" stroke="#000" stroke-dashoffset="9.562" stroke-width="1.147" d="M-401.76 1.71h13.47c.926 0 1.671.744 1.671 1.67v9.549c0 .926-.745 1.671-1.67 1.671h-13.471a1.667 1.667 0 0 1-1.671-1.671V3.38c0-.926.745-1.67 1.67-1.67z" paint-order="stroke markers fill" transform="matrix(.95291 0 0 1.28177 485.628 35.678)"/><path fill="#999" d="M110.894 44.333h-1.405v4.093h-.573v-4.093h-1.402v-.499h3.38z" aria-label="T" font-size="6.302"/></g><g class="group-button kbd-sc15"><path fill="#333" class="kbd-box" stroke="#000" stroke-dashoffset="9.562" stroke-width="1.147" d="M-401.76 1.71h13.47c.926 0 1.671.744 1.671 1.67v9.549c0 .926-.745 1.671-1.67 1.671h-13.471a1.667 1.667 0 0 1-1.671-1.671V3.38c0-.926.745-1.67 1.67-1.67z" paint-order="stroke markers fill" transform="matrix(.95291 0 0 1.28177 503.245 35.678)"/><path fill="#999" d="M125.912 47.931h2.5v.495h-3.182v-.454l2.396-3.64h-2.357v-.498h3.047v.445z" aria-label="Z" font-size="6.302"/></g><g class="group-button kbd-sc16"><path fill="#333" class="kbd-box" stroke="#000" stroke-dashoffset="9.562" stroke-width="1.147" d="M-401.76 1.71h13.47c.926 0 1.671.744 1.671 1.67v9.549c0 .926-.745 1.671-1.67 1.671h-13.471a1.667 1.667 0 0 1-1.671-1.671V3.38c0-.926.745-1.67 1.67-1.67z" paint-order="stroke markers fill" transform="matrix(.95291 0 0 1.28177 520.862 35.678)"/><path fill="#999" d="M146.02 43.803v3.122q-.003.65-.39 1.063-.384.413-1.045.464l-.153.006q-.717 0-1.144-.407-.426-.407-.432-1.12v-3.128h.57v3.11q0 .498.262.775.26.275.744.275.49 0 .748-.275.26-.274.26-.772v-3.113z" aria-label="U" font-size="6.302"/></g><g class="group-button kbd-sc17"><path fill="#333" class="kbd-box" stroke="#000" stroke-dashoffset="9.562" stroke-width="1.147" d="M-401.76 1.71h13.47c.926 0 1.671.744 1.671 1.67v9.549c0 .926-.745 1.671-1.67 1.671h-13.471a1.667 1.667 0 0 1-1.671-1.671V3.38c0-.926.745-1.67 1.67-1.67z" paint-order="stroke markers fill" transform="matrix(.95291 0 0 1.28177 538.479 35.678)"/><path fill="#999" d="M162.055 48.426h-.576v-4.592h.576z" aria-label="I" font-size="6.302"/></g><g class="group-button kbd-sc18"><path fill="#333" class="kbd-box" stroke="#000" stroke-dashoffset="9.562" stroke-width="1.147" d="M-401.76 1.71h13.47c.926 0 1.671.744 1.671 1.67v9.549c0 .926-.745 1.671-1.67 1.671h-13.471a1.667 1.667 0 0 1-1.671-1.671V3.38c0-.926.745-1.67 1.67-1.67z" paint-order="stroke markers fill" transform="matrix(.95291 0 0 1.28177 556.096 35.678)"/><path fill="#999" d="M181.43 46.279q0 .675-.216 1.18-.217.5-.613.766-.396.264-.924.264-.517 0-.916-.264-.4-.269-.621-.76-.22-.496-.226-1.145v-.332q0-.662.22-1.17.219-.507.618-.776.402-.27.919-.27.525 0 .924.267.403.265.619.773.216.505.216 1.176zm-.574-.297q0-.817-.312-1.252-.312-.438-.873-.438-.547 0-.862.438-.312.435-.321 1.211v.338q0 .791.315 1.245.318.451.874.451.558 0 .864-.425.306-.43.315-1.227z" aria-label="O" font-size="6.302"/></g><g class="group-button kbd-sc19"><path fill="#333" class="kbd-box" stroke="#000" stroke-dashoffset="9.562" stroke-width="1.147" d="M-401.76 1.71h13.47c.926 0 1.671.744 1.671 1.67v9.549c0 .926-.745 1.671-1.67 1.671h-13.471a1.667 1.667 0 0 1-1.671-1.671V3.38c0-.926.745-1.67 1.67-1.67z" paint-order="stroke markers fill" transform="matrix(.95291 0 0 1.28177 573.713 35.678)"/><path fill="#999" d="M196.294 46.629v1.797h-.576v-4.592h1.612q.717 0 1.122.385.409.385.409 1.019 0 .668-.4 1.031-.396.36-1.137.36zm0-.496h1.036q.462 0 .708-.227.246-.23.246-.662 0-.41-.246-.656-.246-.246-.675-.255h-1.07z" aria-label="P" font-size="6.302"/></g><g class="group-button kbd-sc1A"><path fill="#333" class="kbd-box" stroke="#000" stroke-dashoffset="9.562" stroke-width="1.147" d="M-401.76 1.71h13.47c.926 0 1.671.744 1.671 1.67v9.549c0 .926-.745 1.671-1.67 1.671h-13.471a1.667 1.667 0 0 1-1.671-1.671V3.38c0-.926.745-1.67 1.67-1.67z" paint-order="stroke markers fill" transform="matrix(.95291 0 0 1.28177 591.33 35.678)"/><path fill="#999" d="M213.72 46.497q-.498-.14-.75-.462-.251-.319-.251-.845v-.557q0-.68-.596-.68v-.407q.596 0 .596-.677v-.583q.006-.512.25-.825.247-.317.75-.46l.108.322q-.588.188-.588.977v.566q0 .636-.47.885.47.252.47.893v.577q.008.77.588.954zm3.97-.344h-.538v4.68h.537v.426h-1.06v-5.532h1.06z"/></g><g class="group-button kbd-sc1B"><path fill="#333" class="kbd-box" stroke="#000" stroke-dashoffset="9.562" stroke-width="1.147" d="M-401.76 1.71h13.47c.926 0 1.671.744 1.671 1.67v9.549c0 .926-.745 1.671-1.67 1.671h-13.471a1.667 1.667 0 0 1-1.671-1.671V3.38c0-.926.745-1.67 1.67-1.67z" paint-order="stroke markers fill" transform="matrix(.95291 0 0 1.28177 608.947 35.678)"/><path fill="#999" d="M229.872 46.175q.57-.182.59-.925v-.615q0-.645.508-.88-.508-.23-.508-.88v-.568q0-.788-.587-.975l.107-.322q.497.14.746.456.25.313.253.83v.587q0 .668.595.668v.405q-.595 0-.595.68v.564q0 .525-.255.841-.253.316-.744.456zm4.24-.447h1.062v5.522h-1.061v-.424h.542v-4.673h-.542z"/></g><g class="group-button kbd-sc2B"><path fill="#333" class="kbd-box" stroke="#000" stroke-dashoffset="9.562" stroke-width="1.3" d="M244.506 37.87a2.137 2.137 0 0 0-2.142 2.141V52.25c0 1.186.955 2.141 2.142 2.141h15.742a2.137 2.137 0 0 0 2.142-2.141V40.01a2.137 2.137 0 0 0-2.142-2.141h-12.56z" paint-order="stroke markers fill"/><path fill="#999" d="M250.12 45.812h-.415V41.01h.416zm4.929 2.515q0 .62-.165 1.19-.162.568-.5 1.049-.335.481-.704.684l-.11-.314q.431-.328.69-1.018.263-.693.269-1.536v-.089q0-.584-.123-1.085-.123-.503-.343-.901-.218-.398-.492-.62l.109-.315q.369.203.701.679.335.476.5 1.049.168.573.168 1.227z"/></g><g class="group-button kbd-sc149"><path fill="#333" class="kbd-box" stroke="#000" stroke-dashoffset="9.562" stroke-width="1.147" d="M-401.76 1.71h13.47c.926 0 1.671.744 1.671 1.67v9.549c0 .926-.745 1.671-1.67 1.671h-13.471a1.667 1.667 0 0 1-1.671-1.671V3.38c0-.926.745-1.67 1.67-1.67z" paint-order="stroke markers fill" transform="matrix(1.0018 0 0 1.28165 668.165 35.64)"/><path fill="#999" d="M268.027 45.977v1.174h-.397v-2.997h1.11q.495 0 .774.25.28.252.28.666 0 .436-.274.673-.273.234-.784.234zm0-.323h.714q.318 0 .487-.148.17-.15.17-.432 0-.268-.17-.428-.17-.161-.465-.167h-.736zm2.096.365q0-.521.242-.828.242-.309.641-.309.41 0 .639.288l.018-.247h.35v2.174q0 .433-.259.682-.256.249-.69.249-.242 0-.473-.103-.232-.103-.354-.282l.199-.229q.245.303.601.303.28 0 .434-.157.157-.156.157-.44v-.192q-.23.264-.626.264-.393 0-.637-.315-.242-.315-.242-.858Zm.385.043q0 .377.155.593.155.214.434.214.362 0 .531-.328v-1.016q-.175-.32-.527-.32-.279 0-.436.217-.157.216-.157.64zm4.26-1.908v2.038q-.002.424-.269.693-.264.27-.719.303l-.105.004q-.494 0-.788-.266-.293-.265-.298-.73v-2.042h.393v2.03q0 .325.18.506.18.179.513.179.337 0 .514-.18.18-.178.18-.504v-2.031zm2.456 1.908q0 .508-.234.82-.233.31-.632.31-.408 0-.641-.257v1.072h-.383v-3.084h.35l.018.247q.234-.288.65-.288.403 0 .636.303.236.302.236.842zm-.383-.043q0-.377-.16-.595-.162-.219-.443-.219-.347 0-.521.307v1.064q.171.305.525.305.275 0 .436-.216.163-.218.163-.646z"/></g></g><g><g class="group-button kbd-sc29"><path fill="#333" class="kbd-box" stroke="#000" stroke-dashoffset="9.562" stroke-width="1.293" d="M6.906 18.863h11.845c1.175 0 2.12.946 2.12 2.12V33.27c0 1.174-.945 2.12-2.12 2.12H6.906a2.116 2.116 0 0 1-2.12-2.12V20.984c0-1.175.946-2.12 2.12-2.12z" paint-order="stroke markers fill"/><path fill="#999" d="M14.09 21.837q0 .598-.357 1.01-.354.409-.874.409-.273 0-.516-.099-.243-.102-.566-.382-.32-.28-.46-.348-.14-.068-.3-.068-.296 0-.455.205-.16.2-.16.555l-.611.008q0-.605.35-.995.349-.389.876-.389.289 0 .555.121.266.121.6.427.334.303.577.34l.11.008q.289 0 .467-.22.182-.218.182-.578zm1.4 5.87q0-.182.107-.303.11-.121.327-.121.216 0 .326.12.114.122.114.303 0 .174-.114.292-.11.117-.326.117-.217 0-.327-.117-.106-.118-.106-.292zm.134 4.802-.4-.272q.358-.495.373-1.021v-.632h.687v.549q0 .382-.19.764-.186.382-.47.612z"/></g><g class="group-button kbd-sc2"><path fill="#333" class="kbd-box" stroke="#000" stroke-dashoffset="9.562" stroke-width="1.293" d="M24.76 18.863h11.846c1.174 0 2.12.946 2.12 2.12V33.27c0 1.174-.946 2.12-2.12 2.12H24.76a2.116 2.116 0 0 1-2.12-2.12V20.984c0-1.175.945-2.12 2.12-2.12z" paint-order="stroke markers fill"/><path fill="#999" d="M31.522 29.433h-.558v-3.889l-1.12.432v-.53l1.591-.627h.087z" aria-label="1" font-size="6.302"/></g><g class="group-button kbd-sc3"><path fill="#333" class="kbd-box" stroke="#000" stroke-dashoffset="9.562" stroke-width="1.293" d="M42.615 18.863H54.46c1.175 0 2.12.946 2.12 2.12V33.27c0 1.174-.945 2.12-2.12 2.12H42.615a2.116 2.116 0 0 1-2.12-2.12V20.984c0-1.175.946-2.12 2.12-2.12z" paint-order="stroke markers fill"/><path fill="#999" d="M50.012 29.454h-2.864v-.42l1.513-1.766q.336-.4.462-.65.13-.252.13-.52 0-.36-.208-.59-.207-.23-.552-.23-.414 0-.646.25-.228.245-.228.687h-.555q0-.634.387-1.025.39-.391 1.042-.391.61 0 .963.337.355.334.355.893 0 .678-.823 1.614l-1.17 1.334h2.194z" aria-label="2" font-size="6.302"/></g><g class="group-button kbd-sc4"><path fill="#333" class="kbd-box" stroke="#000" stroke-dashoffset="9.562" stroke-width="1.293" d="M60.47 18.863h11.845c1.174 0 2.12.946 2.12 2.12V33.27c0 1.174-.946 2.12-2.12 2.12H60.47a2.116 2.116 0 0 1-2.12-2.12V20.984c0-1.175.945-2.12 2.12-2.12z" paint-order="stroke markers fill"/><path fill="#999" d="M65.895 26.842h.418q.393-.006.618-.217.225-.212.225-.571 0-.808-.765-.808-.36 0-.577.218-.213.214-.213.57h-.555q0-.545.378-.904.381-.363.967-.363.618 0 .97.344.35.344.35.955 0 .3-.185.58-.184.281-.502.42.36.12.556.398.198.277.198.678 0 .618-.385.98-.384.363-1 .363-.615 0-1.002-.35-.384-.35-.384-.924h.558q0 .363.225.58.226.218.604.218.402 0 .615-.22.213-.222.213-.635 0-.4-.234-.615-.234-.214-.675-.22h-.418Z" aria-label="3" font-size="6.302"/></g><g class="group-button kbd-sc5"><path fill="#333" class="kbd-box" stroke="#000" stroke-dashoffset="9.562" stroke-width="1.293" d="M78.324 18.863H90.17c1.175 0 2.12.946 2.12 2.12V33.27c0 1.174-.945 2.12-2.12 2.12H78.324a2.116 2.116 0 0 1-2.12-2.12V20.984c0-1.175.946-2.12 2.12-2.12z" paint-order="stroke markers fill"/><path fill="#999" d="M85.218 27.88h.606v.476h-.606v1.066h-.558v-1.066h-1.99v-.344l1.957-3.182h.591zm-1.918 0h1.36v-2.252l-.066.126z" aria-label="4" font-size="6.302"/></g><g class="group-button kbd-sc6"><path fill="#333" class="kbd-box" stroke="#000" stroke-dashoffset="9.562" stroke-width="1.293" d="M96.179 18.863h11.845c1.174 0 2.12.946 2.12 2.12V33.27c0 1.174-.946 2.12-2.12 2.12H96.179a2.116 2.116 0 0 1-2.12-2.12V20.984c0-1.175.945-2.12 2.12-2.12z" paint-order="stroke markers fill"/><path fill="#999" d="m100.884 27.088.222-2.29h2.24v.54h-1.769l-.132 1.252q.322-.199.73-.199.597 0 .948.417.352.413.352 1.12 0 .709-.367 1.119-.363.407-1.017.407-.58 0-.946-.338-.366-.337-.417-.933h.525q.051.394.267.596.217.198.57.198.388 0 .607-.277.222-.278.222-.767 0-.46-.24-.738-.237-.28-.633-.28-.363 0-.57.167l-.148.126z" aria-label="5" font-size="6.302"/></g><g class="group-button kbd-sc7"><path fill="#333" class="kbd-box" stroke="#000" stroke-dashoffset="9.562" stroke-width="1.293" d="M114.033 18.863h11.845c1.175 0 2.12.946 2.12 2.12V33.27c0 1.174-.945 2.12-2.12 2.12h-11.845a2.116 2.116 0 0 1-2.12-2.12V20.984c0-1.175.946-2.12 2.12-2.12z" paint-order="stroke markers fill"/><path fill="#999" d="M120.721 24.797v.495h-.102q-.648.013-1.032.404-.385.39-.445 1.1.346-.416.943-.416.57 0 .91.423.342.422.342 1.091 0 .71-.37 1.135-.366.426-.984.426-.628 0-1.018-.504-.39-.508-.39-1.306v-.224q0-1.268.513-1.937.517-.671 1.534-.687zm-.73 2.069q-.284 0-.525.18-.24.18-.333.45v.215q0 .568.243.915.244.347.607.347.375 0 .588-.29.216-.29.216-.76 0-.474-.219-.764-.216-.293-.576-.293z" aria-label="6" font-size="6.302"/></g><g class="group-button kbd-sc8"><path fill="#333" class="kbd-box" stroke="#000" stroke-dashoffset="9.562" stroke-width="1.293" d="M131.888 18.863h11.845c1.174 0 2.12.946 2.12 2.12V33.27c0 1.174-.946 2.12-2.12 2.12h-11.845a2.116 2.116 0 0 1-2.12-2.12V20.984c0-1.175.945-2.12 2.12-2.12z" paint-order="stroke markers fill"/><path fill="#999" d="m139.287 25.158-1.81 4.264h-.582l1.804-4.113h-2.366v-.479h2.954z" aria-label="7" font-size="6.302"/></g><g class="group-button kbd-sc9"><path fill="#333" class="kbd-box" stroke="#000" stroke-dashoffset="9.562" stroke-width="1.293" d="M149.742 18.863h11.845c1.175 0 2.12.946 2.12 2.12V33.27c0 1.174-.945 2.12-2.12 2.12h-11.845a2.116 2.116 0 0 1-2.12-2.12V20.984c0-1.175.946-2.12 2.12-2.12z" paint-order="stroke markers fill"/><path fill="#999" d="M156.953 26.029q0 .343-.174.611-.172.268-.466.42.342.154.54.45.202.297.202.673 0 .596-.385.949-.38.353-1.005.353-.63 0-1.012-.353-.378-.356-.378-.95 0-.372.192-.671.195-.3.537-.454-.29-.152-.459-.42-.168-.268-.168-.608 0-.58.354-.921.354-.341.934-.341.576 0 .93.34.358.341.358.922zm-.454 2.141q0-.385-.234-.628-.23-.242-.606-.242-.375 0-.604.24-.225.239-.225.63t.22.615q.222.224.615.224.39 0 .612-.224.222-.227.222-.615zm-.834-2.924q-.327 0-.532.215-.2.211-.2.577 0 .35.197.568.202.214.535.214t.531-.214q.201-.218.201-.568t-.207-.57q-.207-.222-.525-.222z" aria-label="8" font-size="6.302"/></g><g class="group-button kbd-scA"><path fill="#333" class="kbd-box" stroke="#000" stroke-dashoffset="9.562" stroke-width="1.293" d="M167.597 18.863h11.845c1.174 0 2.12.946 2.12 2.12V33.27c0 1.174-.946 2.12-2.12 2.12h-11.845a2.116 2.116 0 0 1-2.12-2.12V20.984c0-1.175.945-2.12 2.12-2.12z" paint-order="stroke markers fill"/><path fill="#999" d="M174.336 27.434q-.174.217-.417.35-.24.132-.529.132-.378 0-.66-.195-.28-.196-.432-.55-.154-.356-.154-.785 0-.46.166-.829.168-.369.474-.565.306-.195.714-.195.649 0 1.021.51.375.509.375 1.389v.17q0 1.34-.504 1.958-.504.615-1.522.631h-.108v-.492h.117q.687-.012 1.057-.375.369-.366.402-1.154zm-.856 0q.28 0 .514-.18.237-.18.345-.445v-.233q0-.574-.237-.934-.237-.36-.6-.36-.367 0-.59.297-.221.293-.221.776 0 .47.213.776.216.303.576.303z" aria-label="9" font-size="6.302"/></g><g class="group-button kbd-scB"><path fill="#333" class="kbd-box" stroke="#000" stroke-dashoffset="9.562" stroke-width="1.293" d="M185.452 18.863h11.844c1.175 0 2.12.946 2.12 2.12V33.27c0 1.174-.945 2.12-2.12 2.12h-11.844a2.116 2.116 0 0 1-2.12-2.12V20.984c0-1.175.945-2.12 2.12-2.12z" paint-order="stroke markers fill"/><path fill="#999" d="M192.753 27.464q0 1.025-.333 1.523t-1.042.498q-.7 0-1.035-.486-.337-.488-.349-1.457v-.779q0-1.012.334-1.504.333-.492 1.044-.492.706 0 1.039.476.333.473.342 1.464zm-.555-.798q0-.742-.198-1.079-.198-.34-.628-.34-.426 0-.621.337t-.201 1.037v.934q0 .744.204 1.1.207.354.624.354.412 0 .61-.334.2-.335.21-1.054z" aria-label="0" font-size="6.302"/></g><g class="group-button kbd-scC"><path fill="#333" class="kbd-box" stroke="#000" stroke-dashoffset="9.562" stroke-width="1.293" d="M203.306 18.863h11.845c1.174 0 2.12.946 2.12 2.12V33.27c0 1.174-.946 2.12-2.12 2.12h-11.845a2.116 2.116 0 0 1-2.12-2.12V20.984c0-1.175.945-2.12 2.12-2.12z" paint-order="stroke markers fill"/><path fill="#999" d="M204.925 23.144q0-.467.298-.77.3-.304.77-.304.476 0 .77.307.298.303.298.789v.253q0 .471-.301.771-.298.297-.76.297-.466 0-.77-.297-.305-.3-.305-.796zm.495.275q0 .279.157.46.158.18.423.18.255 0 .409-.176.157-.175.157-.478v-.26q0-.279-.154-.461t-.42-.182q-.264 0-.418.182-.154.182-.154.475zm2.046 2.649q0-.468.297-.768.3-.303.77-.303.47 0 .77.3.302.3.302.796v.253q0 .468-.301.771-.298.3-.764.3-.465 0-.77-.296-.304-.3-.304-.796zm.494.278q0 .282.158.464.157.179.422.179.258 0 .412-.175.155-.179.155-.482v-.264q0-.282-.158-.46-.154-.18-.416-.18-.254 0-.415.18-.158.174-.158.474zm-1.81.603-.376-.235 2.548-4.062.376.235zm7.382 3.752h-2.989v-.575h2.989zm0 1.481h-2.989v-.571h2.989z"/></g><g class="group-button kbd-scD"><path fill="#333" class="kbd-box" stroke="#000" stroke-dashoffset="9.562" stroke-width="1.293" d="M221.16 18.863h11.845c1.175 0 2.12.946 2.12 2.12V33.27c0 1.174-.945 2.12-2.12 2.12h-11.844a2.116 2.116 0 0 1-2.12-2.12V20.984c0-1.175.945-2.12 2.12-2.12z" paint-order="stroke markers fill"/><path fill="#999" d="M223.205 22.788h-.604l-.98-1.112h.847zm4.936 4.397-.08 1.393h-.49l.005-1.813h.565z"/></g><g class="group-button kbd-scE"><path fill="#333" class="kbd-box" stroke="#000" stroke-dashoffset="9.562" stroke-width="1.321" d="M239.078 18.877a2.112 2.112 0 0 0-2.116 2.117v12.264c0 1.173.944 2.117 2.117 2.117h21.001a2.112 2.112 0 0 0 2.117-2.117V20.994a2.112 2.112 0 0 0-2.117-2.117h-12.59z" paint-order="stroke markers fill"/><path fill="#999" d="m240.205 27.126 2.097-1.272v.954h3.952v.636h-3.952v.954z" aria-label="游맶" font-size="11.291"/></g><g class="group-button kbd-sc153"><path fill="#333" class="kbd-box" stroke="#000" stroke-dashoffset="9.562" stroke-width="1.321" d="M266.132 18.879h12.59c1.173 0 2.117.944 2.117 2.116V33.26a2.112 2.112 0 0 1-2.117 2.117h-12.59a2.112 2.112 0 0 1-2.117-2.117V20.995c0-1.172.945-2.116 2.117-2.116z" paint-order="stroke markers fill"/><path fill="#999" d="M266.721 28.688V25.69h.85q.392 0 .694.173.302.173.465.492.166.32.168.733v.192q0 .424-.166.743-.163.32-.469.49-.304.171-.709.175zm.397-2.673v2.35h.417q.46 0 .714-.284.256-.285.256-.81v-.175q0-.51-.242-.792-.24-.285-.682-.289zm3.247 2.714q-.455 0-.74-.296-.285-.299-.285-.797v-.07q0-.332.126-.591.128-.262.356-.408.229-.148.496-.148.436 0 .678.286.242.286.242.82v.158h-1.516q.008.33.193.534.186.201.47.201.203 0 .344-.082.14-.082.246-.218l.234.18q-.282.431-.844.431zm-.047-1.997q-.232 0-.389.169-.157.166-.194.47h1.12v-.03q-.016-.29-.157-.449-.14-.16-.38-.16zm1.777 1.956h-.382v-3.163h.382zm1.54.041q-.454 0-.74-.296-.285-.299-.285-.797v-.07q0-.332.126-.591.128-.262.356-.408.23-.148.496-.148.436 0 .678.286.242.286.242.82v.158h-1.516q.008.33.193.534.186.201.471.201.203 0 .343-.082t.246-.218l.234.18q-.281.431-.844.431zm-.047-1.997q-.232 0-.389.169-.157.166-.194.47h1.12v-.03q-.016-.29-.157-.449-.14-.16-.38-.16zm1.88-.812v.54h.418v.294h-.417v1.382q0 .134.056.202.055.066.19.066.066 0 .182-.025v.31q-.151.04-.294.04-.256 0-.386-.154-.13-.155-.13-.439v-1.382h-.408v-.294h.407v-.54zm1.793 2.81q-.455 0-.74-.297-.285-.299-.285-.797v-.07q0-.332.126-.591.128-.262.355-.408.23-.148.496-.148.437 0 .678.286.242.286.242.82v.158h-1.515q.008.33.192.534.186.201.472.201.202 0 .343-.082.14-.082.246-.218l.233.18q-.28.431-.843.431zm-.048-1.998q-.231 0-.388.169-.157.166-.194.47h1.12v-.03q-.017-.29-.157-.449-.14-.16-.38-.16z"/></g></g><g><g class="group-button kbd-sc1"><path fill="#333" class="kbd-box" stroke="#000" stroke-dashoffset="9.562" stroke-width="1.311" d="M6.572 3.792h13.385c.913 0 1.648.735 1.648 1.648v9.416c0 .913-.735 1.648-1.648 1.648H6.572a1.644 1.644 0 0 1-1.647-1.648V5.44c0-.913.735-1.648 1.647-1.648z" paint-order="stroke markers fill"/><path fill="#999" d="M11.445 10.264h-1.63v1.334h1.893v.405h-2.39V8.241h2.364v.409H9.814v1.209h1.63zm2.434.998q0-.194-.148-.3-.144-.108-.509-.186-.361-.078-.576-.186-.212-.109-.315-.258-.1-.15-.1-.357 0-.344.288-.581.292-.238.745-.238.475 0 .77.245.297.246.297.628h-.48q0-.196-.169-.338-.165-.142-.418-.142-.261 0-.409.113-.147.114-.147.298 0 .173.137.26.137.088.494.168.359.08.58.192.223.11.329.268.109.155.109.38 0 .375-.3.602-.3.225-.778.225-.336 0-.594-.119-.259-.119-.406-.33-.145-.215-.145-.463h.478q.013.24.192.382.18.14.475.14.271 0 .434-.109.166-.11.166-.294zm2.222.403q.255 0 .447-.155.19-.155.212-.388h.452q-.013.24-.166.458-.152.217-.408.346-.253.129-.537.129-.571 0-.91-.38-.336-.382-.336-1.044v-.08q0-.408.15-.726t.429-.493q.282-.176.664-.176.47 0 .78.282.313.281.334.73h-.452q-.021-.27-.207-.444-.184-.175-.455-.175-.364 0-.566.263-.199.261-.199.757v.09q0 .484.2.745.198.26.568.26z"/></g><g class="group-button kbd-sc3B"><path fill="#333" class="kbd-box" stroke="#000" stroke-dashoffset="9.562" stroke-width="1.311" d="M25.04 3.792h13.385c.913 0 1.648.735 1.648 1.648v9.416c0 .913-.735 1.648-1.648 1.648H25.04a1.644 1.644 0 0 1-1.647-1.648V5.44c0-.913.734-1.648 1.647-1.648z" paint-order="stroke markers fill"/><path fill="#999" d="M31.622 10.377h-1.58v1.661h-.495V8.276h2.33v.408h-1.834v1.287h1.579zm2.297 1.661h-.48V8.852l-.965.354v-.434l1.37-.514h.075z"/></g><g class="group-button kbd-sc3C"><path fill="#333" class="kbd-box" stroke="#000" stroke-dashoffset="9.562" stroke-width="1.311" d="M43.561 3.792h13.385c.913 0 1.648.735 1.648 1.648v9.416c0 .913-.735 1.648-1.648 1.648H43.561a1.644 1.644 0 0 1-1.648-1.648V5.44c0-.913.735-1.648 1.648-1.648z" paint-order="stroke markers fill"/><path fill="#999" d="M49.695 10.394h-1.578v1.661h-.496V8.293h2.33v.408h-1.834v1.287h1.578zm3.191 1.661h-2.464v-.344l1.302-1.447q.29-.328.398-.532.11-.207.11-.426 0-.295-.177-.483-.179-.189-.476-.189-.356 0-.555.204-.197.202-.197.563h-.478q0-.519.333-.84.336-.32.897-.32.525 0 .83.277.304.274.304.731 0 .555-.708 1.323l-1.007 1.093h1.888z"/></g><g class="group-button kbd-sc3D"><path fill="#333" class="kbd-box" stroke="#000" stroke-dashoffset="9.562" stroke-width="1.311" d="M62.082 3.792h13.385c.913 0 1.648.735 1.648 1.648v9.416c0 .913-.735 1.648-1.648 1.648H62.082a1.644 1.644 0 0 1-1.648-1.648V5.44c0-.913.735-1.648 1.648-1.648z" paint-order="stroke markers fill"/><path fill="#999" d="M68.291 10.368h-1.578v1.661h-.497V8.267h2.331v.408h-1.834v1.287h1.578zm1.421-.452h.36q.338-.006.532-.179t.194-.467q0-.662-.66-.662-.31 0-.495.178-.184.176-.184.468h-.478q0-.447.326-.741.328-.298.832-.298.532 0 .834.282.303.282.303.783 0 .245-.16.475-.158.23-.432.344.31.098.478.326.17.227.17.555 0 .507-.33.804-.331.297-.86.297-.53 0-.864-.287-.33-.287-.33-.757h.48q0 .297.194.475.194.179.52.179.345 0 .529-.181.183-.181.183-.52 0-.328-.201-.503-.202-.176-.582-.181h-.359z"/></g><g class="group-button kbd-sc3E"><path fill="#333" class="kbd-box" stroke="#000" stroke-dashoffset="9.562" stroke-width="1.311" d="M80.603 3.792h13.385c.913 0 1.647.735 1.647 1.648v9.416c0 .913-.734 1.648-1.647 1.648H80.603a1.644 1.644 0 0 1-1.648-1.648V5.44c0-.913.735-1.648 1.648-1.648z" paint-order="stroke markers fill"/><path fill="#999" d="M86.7 10.368H85.12v1.661h-.496V8.267h2.33v.408h-1.834v1.287H86.7zm2.744.398h.522v.39h-.522v.873h-.48v-.873H87.25v-.282l1.685-2.607h.509zm-1.651 0h1.17V8.92l-.057.103z"/></g><g class="group-button kbd-sc3F"><path fill="#333" class="kbd-box" stroke="#000" stroke-dashoffset="9.562" stroke-width="1.311" d="M99.124 3.792h13.384c.913 0 1.648.735 1.648 1.648v9.416c0 .913-.735 1.648-1.648 1.648H99.124a1.644 1.644 0 0 1-1.648-1.648V5.44c0-.913.735-1.648 1.648-1.648z" paint-order="stroke markers fill"/><path fill="#999" d="M105.266 10.342h-1.579v1.661h-.496V8.241h2.33v.409h-1.834v1.286h1.579zm.945-.225.192-1.876h1.927v.442h-1.522l-.113 1.026q.276-.163.627-.163.515 0 .817.341.302.339.302.917 0 .582-.315.918-.313.333-.876.333-.499 0-.814-.276-.315-.277-.359-.765h.452q.044.323.23.488.186.163.491.163.333 0 .522-.228.191-.227.191-.627 0-.378-.206-.605-.205-.23-.546-.23-.312 0-.49.137l-.127.103z"/></g><g class="group-button kbd-sc40"><path fill="#333" class="kbd-box" stroke="#000" stroke-dashoffset="9.562" stroke-width="1.311" d="M117.645 3.792h13.384c.913 0 1.648.735 1.648 1.648v9.416c0 .913-.735 1.648-1.648 1.648h-13.384a1.644 1.644 0 0 1-1.648-1.648V5.44c0-.913.735-1.648 1.648-1.648z" paint-order="stroke markers fill"/><path fill="#999" d="M123.809 10.343h-1.58v1.662h-.495V8.243h2.33v.408h-1.834v1.287h1.579zm2.601-2.103v.406h-.087q-.559.01-.89.33-.33.32-.382.902.297-.34.812-.34.49 0 .783.345.294.347.294.894 0 .582-.318.93-.315.35-.847.35-.54 0-.876-.414-.336-.416-.336-1.07v-.183q0-1.039.442-1.587.444-.55 1.32-.563zm-.627 1.695q-.246 0-.453.147-.206.148-.286.37v.175q0 .466.209.75.21.284.522.284.323 0 .506-.238.186-.237.186-.622 0-.388-.188-.626-.186-.24-.496-.24Z"/></g><g class="group-button kbd-sc41"><path fill="#333" class="kbd-box" stroke="#000" stroke-dashoffset="9.562" stroke-width="1.311" d="M136.165 3.792h13.385c.913 0 1.648.735 1.648 1.648v9.416c0 .913-.735 1.648-1.648 1.648h-13.385a1.644 1.644 0 0 1-1.647-1.648V5.44c0-.913.734-1.648 1.647-1.648z" paint-order="stroke markers fill"/><path fill="#999" d="M142.318 10.368h-1.579v1.661h-.496V8.267h2.33v.408h-1.834v1.287h1.579zm3.155-1.832-1.558 3.493h-.502l1.553-3.37h-2.036v-.392h2.543z"/></g><g class="group-button kbd-sc42"><path fill="#333" class="kbd-box" stroke="#000" stroke-dashoffset="9.562" stroke-width="1.311" d="M154.686 3.792h13.385c.913 0 1.648.735 1.648 1.648v9.416c0 .913-.735 1.648-1.648 1.648h-13.385a1.644 1.644 0 0 1-1.648-1.648V5.44c0-.913.735-1.648 1.648-1.648z" paint-order="stroke markers fill"/><path fill="#999" d="M160.868 10.368h-1.578v1.661h-.497V8.267h2.331v.408h-1.834v1.287h1.578zm3.008-1.119q0 .282-.15.501-.147.22-.4.344.294.126.465.37.173.242.173.55 0 .488-.331.777-.328.29-.866.29-.542 0-.87-.29-.326-.292-.326-.777 0-.305.165-.55.168-.246.463-.373-.25-.124-.395-.343-.145-.22-.145-.499 0-.475.305-.755.305-.279.803-.279.496 0 .801.28.308.279.308.754zm-.39 1.754q0-.315-.202-.514-.199-.199-.522-.199t-.52.197q-.193.196-.193.516t.189.504q.19.184.53.184.335 0 .527-.184.19-.186.19-.504zm-.719-2.395q-.281 0-.457.176-.173.173-.173.473 0 .287.17.465.174.176.46.176.287 0 .458-.176.173-.178.173-.465 0-.287-.178-.468-.179-.18-.453-.18Z"/></g><g class="group-button kbd-sc43"><path fill="#333" class="kbd-box" stroke="#000" stroke-dashoffset="9.562" stroke-width="1.311" d="M173.207 3.792h13.385c.913 0 1.648.735 1.648 1.648v9.416c0 .913-.735 1.648-1.648 1.648h-13.385a1.644 1.644 0 0 1-1.648-1.648V5.44c0-.913.735-1.648 1.648-1.648z" paint-order="stroke markers fill"/><path fill="#999" d="M179.418 10.392h-1.58v1.662h-.495V8.292h2.33V8.7h-1.834v1.287h1.579zm2.558.008q-.15.178-.36.287-.206.108-.454.108-.326 0-.569-.16-.24-.16-.372-.45-.132-.291-.132-.643 0-.377.142-.68.145-.302.409-.462.263-.16.615-.16.558 0 .878.419.323.416.323 1.136v.14q0 1.098-.434 1.605-.434.503-1.31.516h-.093v-.403h.1q.593-.01.91-.307.318-.3.347-.946zm-.737 0q.24 0 .442-.147.204-.147.297-.364v-.192q0-.47-.204-.765-.204-.294-.517-.294-.315 0-.506.243-.191.24-.191.635 0 .385.183.636.186.248.496.248z"/></g><g class="group-button kbd-sc44"><path fill="#333" class="kbd-box" stroke="#000" stroke-dashoffset="9.562" stroke-width="1.311" d="M191.728 3.792h13.385c.913 0 1.647.735 1.647 1.648v9.416c0 .913-.734 1.648-1.647 1.648h-13.385a1.644 1.644 0 0 1-1.648-1.648V5.44c0-.913.735-1.648 1.648-1.648z" paint-order="stroke markers fill"/><path fill="#999" d="M196.43 10.368h-1.58v1.661h-.495V8.267h2.33v.408h-1.834v1.287h1.578zm2.296 1.661h-.48V8.843l-.964.354v-.434l1.37-.514h.074zm3.76-1.604q0 .84-.287 1.248-.287.408-.896.408-.603 0-.892-.398-.29-.4-.3-1.194v-.638q0-.83.287-1.232.287-.404.9-.404.607 0 .893.39.287.388.295 1.2zm-.478-.654q0-.607-.17-.884-.171-.279-.54-.279-.368 0-.536.277-.167.276-.173.85v.765q0 .61.176.901.178.29.538.29.353 0 .524-.274.173-.274.18-.863z"/></g><g class="group-button kbd-sc57"><path fill="#333" class="kbd-box" stroke="#000" stroke-dashoffset="9.562" stroke-width="1.311" d="M210.249 3.792h13.385c.912 0 1.647.735 1.647 1.648v9.416c0 .913-.735 1.648-1.647 1.648h-13.385a1.644 1.644 0 0 1-1.648-1.648V5.44c0-.913.735-1.648 1.648-1.648z" paint-order="stroke markers fill"/><path fill="#999" d="M215.344 10.377h-1.578v1.661h-.497V8.276h2.331v.408h-1.834v1.287h1.578zm2.297 1.661h-.48V8.852l-.964.354v-.434l1.37-.514h.074zm2.972 0h-.48V8.852l-.965.354v-.434l1.37-.514h.075z"/></g><g class="group-button kbd-sc58"><path fill="#333" class="kbd-box" stroke="#000" stroke-dashoffset="9.562" stroke-width="1.311" d="M228.77 3.792h13.384c.913 0 1.648.735 1.648 1.648v9.416c0 .913-.735 1.648-1.648 1.648H228.77a1.644 1.644 0 0 1-1.648-1.648V5.44c0-.913.735-1.648 1.648-1.648z" paint-order="stroke markers fill"/><path fill="#999" d="M233.418 10.394h-1.579v1.661h-.496V8.293h2.33v.408h-1.834v1.287h1.58zm2.297 1.661h-.48V8.869l-.964.354V8.79l1.37-.514h.074zm3.866 0h-2.465v-.344l1.302-1.447q.29-.328.398-.532.11-.207.11-.426 0-.295-.177-.483-.179-.189-.476-.189-.356 0-.555.204-.197.202-.197.563h-.478q0-.519.334-.84.335-.32.896-.32.525 0 .83.277.304.274.304.731 0 .555-.708 1.323l-1.007 1.093h1.889z"/></g><g class="group-button kbd-sc137"><path fill="#333" class="kbd-box" stroke="#000" stroke-dashoffset="9.562" stroke-width="1.311" d="M247.29 3.792h13.385c.913 0 1.648.735 1.648 1.648v9.416c0 .913-.735 1.648-1.648 1.648H247.29a1.644 1.644 0 0 1-1.647-1.648V5.44c0-.913.734-1.648 1.647-1.648z" paint-order="stroke markers fill"/><path fill="#999" d="M249.602 10.234v1.118h-.378V8.496h1.058c.314 0 .56.08.737.24.178.159.268.37.268.633 0 .277-.088.49-.262.641-.174.15-.423.224-.747.224zm0-.308h.68c.202 0 .357-.047.465-.141.107-.096.161-.233.161-.412a.536.536 0 0 0-.161-.408c-.108-.102-.256-.155-.443-.16h-.702zm3.14-.37a1.098 1.098 0 0 0-.18-.015c-.238 0-.4.102-.486.305v1.506h-.364V9.23h.355l.005.245a.568.568 0 0 1 .508-.285c.07 0 .124.01.161.028zm.928-.84v.514h.398v.28h-.398v1.316c0 .085.018.15.053.193.036.041.096.062.181.062.042 0 .1-.007.174-.023v.294a1.06 1.06 0 0 1-.28.04c-.163 0-.286-.05-.368-.148-.083-.098-.125-.237-.125-.418V9.51h-.388v-.28h.388v-.514Zm1.725 1.363c-.324-.093-.56-.207-.709-.341a.657.657 0 0 1-.22-.503c0-.224.09-.41.27-.557.18-.147.416-.221.705-.221.197 0 .372.038.526.113.155.076.274.18.358.314.086.134.128.28.128.438h-.38a.515.515 0 0 0-.165-.406c-.11-.1-.266-.15-.467-.15-.187 0-.333.042-.438.124a.406.406 0 0 0-.155.34c0 .116.05.215.148.296.1.08.268.153.506.22.239.066.425.14.56.221.134.08.234.173.299.28a.711.711 0 0 1 .098.38c0 .23-.09.416-.272.556-.181.139-.423.208-.727.208-.197 0-.38-.037-.551-.112a.942.942 0 0 1-.396-.31.756.756 0 0 1-.138-.445h.38c0 .173.064.31.191.41.129.1.3.15.514.15.2 0 .353-.041.46-.122a.394.394 0 0 0 .159-.332c0-.14-.05-.248-.148-.323-.098-.078-.277-.154-.536-.228zm2.346 1.016c.13 0 .244-.04.341-.118a.414.414 0 0 0 .162-.294h.344a.657.657 0 0 1-.126.347.892.892 0 0 1-.72.36c-.29.001-.522-.095-.694-.287-.17-.194-.256-.458-.256-.793v-.06c0-.207.038-.39.114-.552a.87.87 0 0 1 .327-.374.94.94 0 0 1 .507-.134c.239 0 .437.072.594.214a.761.761 0 0 1 .255.555h-.345a.494.494 0 0 0-.504-.47.513.513 0 0 0-.432.2c-.101.132-.152.323-.152.574v.069c0 .245.051.433.152.565a.513.513 0 0 0 .434.198z" style="stroke-width:1.33042" transform="translate(.076 .224)"/></g><g class="group-button kbd-sc46"><path fill="#333" class="kbd-box" stroke="#000" stroke-dashoffset="9.562" stroke-width="1.311" d="M265.811 3.792h13.385c.913 0 1.648.735 1.648 1.648v9.416c0 .913-.735 1.648-1.648 1.648h-13.385a1.644 1.644 0 0 1-1.648-1.648V5.44c0-.913.735-1.648 1.648-1.648z" paint-order="stroke markers fill"/><g fill="#999"><path d="M268.67 10.357q-.474-.136-.69-.333-.215-.2-.215-.49 0-.33.262-.545.265-.217.686-.217.288 0 .512.111.226.112.349.307.124.196.124.427h-.37q0-.253-.16-.396-.161-.146-.455-.146-.272 0-.425.12-.151.12-.151.332 0 .17.143.29.146.117.493.214.349.098.544.217.197.117.291.274.096.157.096.37 0 .339-.264.544-.265.203-.707.203-.288 0-.537-.11-.25-.11-.385-.302-.134-.192-.134-.435h.37q0 .253.185.4.188.146.5.146.292 0 .447-.119.155-.119.155-.324 0-.205-.143-.316-.144-.113-.522-.222zM270.952 11.35q.19 0 .331-.115.142-.115.157-.288h.335q-.01.178-.122.34-.113.16-.303.256-.188.096-.398.096-.424 0-.675-.282-.25-.283-.25-.774v-.06q0-.302.112-.538.111-.235.318-.366.209-.13.493-.13.348 0 .578.209.232.209.247.542h-.335q-.015-.201-.153-.33-.136-.13-.337-.13-.27 0-.42.196-.148.193-.148.561v.067q0 .358.148.552.147.194.421.194zM273.176 9.845q-.08-.013-.174-.013-.349 0-.474.297v1.472h-.354V9.527h.345l.005.24q.175-.278.495-.278.103 0 .157.027zM273.927 11.3h1.322v.3h-1.692V8.81h.37zM276.192 10.64l-.222.232v.729h-.355V8.657h.355v1.78l.19-.228.645-.682h.431l-.806.866.9 1.208h-.415z"/></g></g><g class="group-button kbd-sc45"><path fill="#333" class="kbd-box" stroke="#000" stroke-dashoffset="9.562" stroke-width="1.311" d="M287.507 3.706h13.385c.913 0 1.648.735 1.648 1.648v9.416c0 .913-.735 1.647-1.648 1.647h-13.385a1.644 1.644 0 0 1-1.648-1.647V5.354c0-.913.735-1.648 1.648-1.648z" paint-order="stroke markers fill"/><path fill="#999" d="M267.246 10.292v1.151h-.39v-2.94h1.09c.323 0 .576.081.758.246a.832.832 0 0 1 .276.652c0 .286-.09.506-.27.66-.178.154-.434.23-.768.23zm0-.317h.7c.208 0 .367-.049.478-.146.111-.098.167-.24.167-.424a.552.552 0 0 0-.167-.42c-.11-.105-.263-.16-.456-.164h-.722zm3.505 1.468a.782.782 0 0 1-.053-.23.839.839 0 0 1-.625.27.783.783 0 0 1-.533-.181.595.595 0 0 1-.207-.465c0-.227.087-.404.26-.529.174-.127.419-.19.734-.19h.365v-.172c0-.13-.04-.234-.118-.31-.078-.079-.194-.118-.347-.118a.549.549 0 0 0-.336.101c-.09.068-.136.149-.136.245h-.377c0-.11.038-.214.115-.315a.802.802 0 0 1 .317-.243c.133-.06.28-.089.44-.089.253 0 .45.064.594.19.143.125.218.298.223.52v1.005c0 .2.026.36.077.479v.032zm-.623-.285c.118 0 .23-.03.335-.09a.55.55 0 0 0 .229-.237v-.448h-.294c-.46 0-.69.134-.69.402 0 .117.04.208.118.274.078.066.18.1.302.1zm2.882.07c-.146.17-.36.256-.643.256-.233 0-.412-.068-.535-.202-.122-.136-.183-.337-.185-.602V9.258h.376v1.412c0 .33.135.497.405.497.287 0 .478-.107.572-.32v-1.59h.376v2.186h-.357zm2.213-.364a.271.271 0 0 0-.115-.235c-.076-.056-.21-.105-.4-.145-.19-.04-.34-.09-.452-.146a.654.654 0 0 1-.248-.202.486.486 0 0 1-.079-.278c0-.18.076-.331.228-.455a.898.898 0 0 1 .584-.186c.249 0 .45.064.604.192a.608.608 0 0 1 .234.491h-.378a.336.336 0 0 0-.132-.265.488.488 0 0 0-.328-.11.515.515 0 0 0-.32.088.28.28 0 0 0-.116.232c0 .09.036.159.107.204.072.046.201.09.388.132.188.042.34.091.456.15a.65.65 0 0 1 .258.21c.057.08.085.18.085.296a.561.561 0 0 1-.235.47c-.157.118-.36.177-.61.177a1.11 1.11 0 0 1-.467-.093.769.769 0 0 1-.319-.259.632.632 0 0 1-.114-.361h.376a.39.39 0 0 0 .15.299c.095.072.219.109.373.109a.607.607 0 0 0 .34-.085.265.265 0 0 0 .13-.23zm1.775.62a.963.963 0 0 1-.726-.291c-.186-.195-.28-.456-.28-.782v-.069c0-.216.041-.41.124-.58a.972.972 0 0 1 .349-.4.88.88 0 0 1 .487-.145c.285 0 .507.094.665.281.158.187.237.455.237.804v.156h-1.487a.78.78 0 0 0 .19.523.602.602 0 0 0 .462.198.656.656 0 0 0 .336-.081.846.846 0 0 0 .242-.214l.229.177c-.184.282-.46.423-.828.423zm-.046-1.96a.5.5 0 0 0-.382.166c-.102.109-.166.263-.19.46h1.1v-.028c-.012-.19-.063-.336-.155-.44a.47.47 0 0 0-.373-.158z" style="text-align:center;display:inline;stroke-width:1.37" transform="translate(21.844 .069)"/></g><g class="group-button kbd-sc152"><path fill="#333" class="kbd-box" stroke="#000" stroke-dashoffset="9.562" stroke-width="1.311" d="M306.028 3.706h13.385c.913 0 1.648.735 1.648 1.648v9.416c0 .913-.735 1.647-1.648 1.647h-13.385a1.644 1.644 0 0 1-1.648-1.647V5.354c0-.913.735-1.648 1.648-1.648z" paint-order="stroke markers fill"/><g fill="#999"><path d="M308.072 11.512h-.388V8.571h.388zM309.076 9.326l.013.275q.25-.315.654-.315.693 0 .699.782v1.444h-.374v-1.446q-.001-.237-.109-.35-.105-.113-.33-.113-.18 0-.318.097t-.214.255v1.557h-.374V9.326ZM312.278 10.932q0-.151-.115-.234-.113-.085-.398-.145-.283-.061-.45-.146-.166-.085-.247-.202-.079-.117-.079-.279 0-.268.226-.454.229-.186.582-.186.372 0 .602.192.233.192.233.49h-.376q0-.153-.131-.264-.13-.111-.328-.111-.204 0-.319.089-.115.089-.115.232 0 .136.107.204.107.069.386.132.28.062.454.149t.257.21q.085.121.085.297 0 .293-.235.47-.234.176-.608.176-.262 0-.464-.092-.202-.093-.317-.26-.114-.167-.114-.36h.374q.01.187.15.298.141.11.371.11.212 0 .34-.085.129-.087.129-.23zM314.045 11.552q-.444 0-.723-.29-.278-.293-.278-.782v-.069q0-.325.123-.58.125-.256.347-.4.224-.145.485-.145.426 0 .663.28.236.282.236.805v.155h-1.48q.007.323.187.523.182.198.46.198.199 0 .336-.08.137-.081.24-.215l.229.178q-.275.422-.825.422zM314 9.593q-.226 0-.38.166-.153.163-.19.46h1.095v-.028q-.016-.285-.153-.44-.138-.158-.372-.158zM316.387 9.662q-.085-.014-.184-.014-.368 0-.5.313v1.551h-.373V9.326h.364l.005.253q.184-.293.521-.293.11 0 .166.028zM317.338 8.797v.53h.408v.288h-.408v1.356q0 .131.055.198.054.064.185.064.065 0 .178-.024v.303q-.147.04-.287.04-.25 0-.377-.151-.128-.152-.128-.43V9.615h-.398v-.289h.398v-.529z"/></g></g><g class="group-button kbd-sc147"><path fill="#333" class="kbd-box" stroke="#000" stroke-dashoffset="9.562" stroke-width="1.311" d="M324.549 3.706h13.385c.913 0 1.647.735 1.647 1.648v9.416c0 .913-.734 1.647-1.647 1.647h-13.385a1.644 1.644 0 0 1-1.648-1.647V5.354c0-.913.735-1.648 1.648-1.648z" paint-order="stroke markers fill"/><g fill="#999"><path d="M328.184 11.512h-.39v-1.36h-1.483v1.36h-.387V8.571h.387v1.264h1.483V8.571h.39zM328.715 10.399q0-.321.125-.578.128-.256.352-.396.226-.139.515-.139.446 0 .721.309.277.31.277.822v.026q0 .32-.123.574-.122.253-.35.394-.226.141-.52.141-.445 0-.722-.309-.275-.309-.275-.818zm.376.044q0 .364.168.584.17.22.452.22.285 0 .453-.222.167-.224.167-.626 0-.36-.171-.582-.17-.224-.453-.224-.277 0-.446.22-.17.22-.17.63zM331.525 9.326l.01.243q.24-.283.648-.283.459 0 .624.351.11-.157.283-.254.176-.097.414-.097.72 0 .731.762v1.464h-.373V10.07q0-.235-.107-.35-.107-.117-.36-.117-.208 0-.345.125-.138.124-.16.334v1.45h-.376V10.08q0-.477-.466-.477-.368 0-.503.313v1.596h-.373V9.326ZM335.706 11.552q-.444 0-.723-.29-.278-.293-.278-.782v-.069q0-.325.123-.58.125-.256.347-.4.224-.145.485-.145.426 0 .663.28.236.282.236.805v.155h-1.48q.007.323.187.523.182.198.46.198.199 0 .336-.08.137-.081.24-.215l.229.178q-.275.422-.825.422zm-.046-1.959q-.226 0-.38.166-.153.163-.19.46h1.095v-.028q-.016-.285-.153-.44-.138-.158-.372-.158z"/></g></g></g><g class="group-button kbd-sc14F"><path fill="#333" class="kbd-box" stroke="#000" stroke-dashoffset="9.562" stroke-width="1.311" d="M343.07 3.706h13.384c.913 0 1.648.735 1.648 1.648v9.416c0 .913-.735 1.647-1.648 1.647H343.07a1.644 1.644 0 0 1-1.648-1.647V5.354c0-.913.735-1.648 1.648-1.648z" paint-order="stroke markers fill"/><g fill="#999"><path d="M348.281 10.269h-1.257v1.028h1.46v.312h-1.842v-2.9h1.822v.315h-1.44v.932h1.257zM349.251 9.454l.012.27q.247-.31.645-.31.684 0 .69.771v1.424h-.369v-1.426q-.001-.233-.107-.345-.104-.111-.325-.111-.18 0-.315.096-.135.095-.211.25v1.536h-.368V9.454ZM351.064 10.514q0-.496.235-.797.235-.303.615-.303.379 0 .6.26V8.55h.368v3.06h-.338l-.018-.232q-.221.271-.616.271-.374 0-.611-.307-.235-.306-.235-.8zm.368.042q0 .366.152.573.151.207.418.207.35 0 .512-.314v-.99q-.165-.305-.508-.305-.27 0-.422.21-.152.208-.152.619z"/></g></g></svg>